<?xml version="1.0" encoding="utf-8"?>
<!-- Generator: Adobe Illustrator 24.0.0, SVG Export Plug-In . SVG Version: 6.00 Build 0)  -->
<svg version="1.1" id="Capa_1" xmlns="http://www.w3.org/2000/svg" xmlns:xlink="http://www.w3.org/1999/xlink" x="0px" y="0px"
	 viewBox="0 0 11 11" style="enable-background:new 0 0 11 11;" xml:space="preserve">
<style type="text/css">
	.st0{fill:#FFFFFF;}
	.st1{fill:none;stroke:#FFFFFF;stroke-width:0.85;}
</style>
<path class="st0" d="M5.6,4.6V4c0-0.2,0.2-0.3,0.3-0.3h0.3V2.9H5.6c-0.6,0-1,0.4-1,1v0.8H3.9v0.8h0.7V8h1V5.4h0.7l0.3-0.8H5.6z"/>
<path class="st1" d="M3.3,0.5c-1.7,0-3,1.3-3,3v3.9c0,1.7,1.3,3,3,3h3.9c1.7,0,3-1.3,3-3V3.5c0-1.7-1.3-3-3-3H3.3z"/>
</svg>
