<?xml version="1.0" encoding="utf-8"?>
<!-- Generator: Adobe Illustrator 24.0.0, SVG Export Plug-In . SVG Version: 6.00 Build 0)  -->
<svg version="1.1" id="Capa_1" xmlns="http://www.w3.org/2000/svg" xmlns:xlink="http://www.w3.org/1999/xlink" x="0px" y="0px"
	 viewBox="0 0 10 10" style="enable-background:new 0 0 10 10;" xml:space="preserve">
<style type="text/css">
	.st0{fill:#FFFFFF;}
</style>
<path class="st0" d="M9,7c0,0.5-0.1,0.7-0.2,0.9C8.7,8.4,8.4,8.7,7.9,8.9C7.8,8.9,7.5,9,7,9c-0.5,0-0.7,0-2,0c-1.3,0-1.5,0-2,0
	C2.5,9,2.2,8.9,2.1,8.9C1.9,8.8,1.7,8.7,1.5,8.5C1.3,8.3,1.2,8.1,1.1,7.9C1.1,7.8,1,7.5,1,7c0-0.5,0-0.7,0-2c0-1.3,0-1.5,0-2
	c0-0.5,0.1-0.7,0.2-0.9c0.1-0.2,0.2-0.4,0.4-0.6c0.2-0.2,0.4-0.3,0.6-0.4C2.3,1.1,2.5,1,3,1c0.5,0,0.7,0,2,0c1.3,0,1.5,0,2,0
	c0.5,0,0.7,0.1,0.9,0.2c0.2,0.1,0.4,0.2,0.6,0.4c0.2,0.2,0.3,0.4,0.4,0.6C8.9,2.3,9,2.5,9,3c0,0.5,0,0.7,0,2C9.1,6.3,9.1,6.5,9,7
	 M9.9,3c0-0.5-0.1-0.9-0.2-1.2C9.6,1.4,9.4,1.1,9.1,0.9C8.9,0.6,8.6,0.4,8.3,0.3C7.9,0.2,7.6,0.1,7.1,0.1C6.5,0,6.4,0,5,0
	s-1.5,0-2,0c-0.5,0-0.9,0.1-1.2,0.2C1.4,0.4,1.1,0.6,0.9,0.9C0.6,1.1,0.4,1.4,0.3,1.7C0.2,2.1,0.1,2.4,0.1,3c0,0.5,0,0.7,0,2
	c0,1.3,0,1.5,0,2c0,0.5,0.1,0.9,0.2,1.2c0.1,0.3,0.3,0.6,0.6,0.9c0.2,0.3,0.5,0.4,0.9,0.6C2.1,9.8,2.4,9.9,3,9.9c0.5,0,0.7,0,2,0
	s1.5,0,2,0c0.5,0,0.9-0.1,1.2-0.2c0.7-0.3,1.2-0.8,1.5-1.5C9.8,7.9,9.9,7.6,9.9,7c0-0.5,0-0.7,0-2C10,3.7,10,3.5,9.9,3"/>
<path class="st0" d="M5,6.7C4.1,6.7,3.3,5.9,3.3,5S4.1,3.3,5,3.3S6.7,4.1,6.7,5S5.9,6.7,5,6.7 M5,2.4C3.6,2.4,2.5,3.6,2.5,5
	S3.6,7.6,5,7.6S7.6,6.4,7.6,5S6.4,2.4,5,2.4"/>
<path class="st0" d="M8.3,2.3c0,0.3-0.3,0.6-0.6,0.6S7.1,2.7,7.1,2.3s0.3-0.6,0.6-0.6S8.3,2,8.3,2.3"/>
</svg>
