<?xml version="1.0" encoding="utf-8"?>
<!-- Generator: Adobe Illustrator 24.0.0, SVG Export Plug-In . SVG Version: 6.00 Build 0)  -->
<svg version="1.1" id="Capa_1" xmlns="http://www.w3.org/2000/svg" xmlns:xlink="http://www.w3.org/1999/xlink" x="0px" y="0px"
	 viewBox="0 0 11 11" style="enable-background:new 0 0 11 11;" xml:space="preserve">
<style type="text/css">
	.st0{fill:none;stroke:#FFFFFF;stroke-width:0.85;}
	.st1{fill:#FFFFFF;}
</style>
<path class="st0" d="M3.3,0.5c-1.7,0-3,1.3-3,3v3.9c0,1.7,1.3,3,3,3h3.9c1.7,0,3-1.3,3-3V3.5c0-1.7-1.3-3-3-3H3.3z"/>
<path class="st1" d="M7.8,8L7.8,8L7.8,8l0-1.9c0-0.9-0.2-1.6-1.2-1.6c-0.5,0-0.8,0.3-1,0.6h0V4.6h-1V8h1V6.3c0-0.4,0.1-0.9,0.6-0.9
	c0.5,0,0.5,0.5,0.5,0.9V8H7.8z"/>
<rect x="2.8" y="4.6" class="st1" width="1" height="3.4"/>
<path class="st1" d="M3.4,2.9C3,2.9,2.8,3.2,2.8,3.5c0,0.3,0.3,0.6,0.6,0.6S4,3.8,4,3.5C4,3.2,3.7,2.9,3.4,2.9"/>
</svg>
