<?xml version="1.0" encoding="utf-8"?>
<!-- Generator: Adobe Illustrator 24.0.0, SVG Export Plug-In . SVG Version: 6.00 Build 0)  -->
<svg version="1.1" id="Capa_1" xmlns="http://www.w3.org/2000/svg" xmlns:xlink="http://www.w3.org/1999/xlink" x="0px" y="0px"
	 viewBox="0 0 11 11" style="enable-background:new 0 0 11 11;" xml:space="preserve">
<style type="text/css">
	.st0{fill:none;stroke:#FFFFFF;stroke-width:0.85;}
	.st1{fill:#FFFFFF;}
</style>
<path class="st0" d="M3.3,0.5c-1.7,0-3,1.3-3,3v3.9c0,1.7,1.3,3,3,3h3.9c1.7,0,3-1.3,3-3V3.5c0-1.7-1.3-3-3-3H3.3z"/>
<path class="st1" d="M7.8,3.9C7.6,4,7.4,4.1,7.2,4.1C7.4,4,7.6,3.8,7.6,3.5C7.4,3.6,7.2,3.7,7,3.8C6.8,3.6,6.5,3.4,6.2,3.4
	c-0.6,0-1,0.5-1,1c0,0.1,0,0.2,0,0.2c-0.9,0-1.6-0.4-2.1-1.1C3,3.8,3,4,3,4.1C3,4.5,3.2,4.8,3.4,5C3.3,5,3.1,4.9,3,4.9v0
	c0,0.5,0.4,0.9,0.8,1c-0.1,0-0.2,0-0.3,0c-0.1,0-0.1,0-0.2,0c0.1,0.4,0.5,0.7,1,0.7C3.9,6.8,3.5,7,3,7C2.9,7,2.8,7,2.8,7
	c0.5,0.3,1,0.5,1.6,0.5c1.9,0,2.9-1.5,2.9-2.9c0,0,0-0.1,0-0.1C7.5,4.3,7.6,4.1,7.8,3.9"/>
</svg>
