<?xml version="1.0" encoding="utf-8"?>
<!-- Generator: Adobe Illustrator 24.1.0, SVG Export Plug-In . SVG Version: 6.00 Build 0)  -->
<svg version="1.1" id="Capa_1" xmlns="http://www.w3.org/2000/svg" xmlns:xlink="http://www.w3.org/1999/xlink" x="0px" y="0px"
	 viewBox="0 0 2259 1396" style="enable-background:new 0 0 2259 1396;" xml:space="preserve">
<style type="text/css">
	.st0{fill:#333333;}
	.st1{fill:none;stroke:#333333;stroke-width:46;stroke-linecap:round;stroke-linejoin:round;stroke-miterlimit:10;}
	.st2{fill:none;stroke:#333333;stroke-width:30;stroke-linecap:round;stroke-linejoin:round;stroke-miterlimit:10;}
	.st3{fill:none;stroke:#333333;stroke-width:37;stroke-linecap:round;stroke-linejoin:round;stroke-miterlimit:10;}
	.st4{fill:#E6E6E6;}
</style>
<g>
	<g>
		<path class="st0" d="M1858.45,626.89c-33.5,0-65.86,4.91-96.5,13.89l-11.07-33.58c34.12-10.12,70.2-15.65,107.57-15.65
			c6.39,0,11.56-5.18,11.56-11.56c0-6.38-5.17-11.56-11.56-11.56c-39.89,0-78.41,5.92-114.81,16.79l-36.44-110.53l19.76-6.51
			c2.91-0.96,5.33-3.04,6.71-5.77c1.39-2.74,1.63-5.91,0.66-8.82l-26.16-79.34c3.31,1.32,6.75,2.38,10.42,2.84l75.85,9.39
			c0.47,0.06,0.95,0.09,1.42,0.09c2.8,0,5.53-1.02,7.66-2.9c2.48-2.2,3.91-5.35,3.91-8.67v-94.2c0-3.31-1.42-6.47-3.91-8.67
			c-2.48-2.2-5.78-3.22-9.08-2.81l-75.85,9.39c-19.72,2.44-34.78,18.29-36.86,37.68c-1.52-0.13-3.08,0.02-4.62,0.53l-19.76,6.51
			l-64.6-195.96c1.11-0.08,1.94-0.16,2.15-0.18c6.34-0.71,10.9-6.4,10.21-12.74c-0.69-6.34-6.38-10.94-12.74-10.24
			c-0.16,0.02-6.17,0.6-14.4,0.05c-0.2-0.02-0.39-0.04-0.59-0.05c-13.18-0.96-31.72-4.88-41.5-18.65
			c-24.06-33.87-57.53-32.88-71.56-27.71l-139.48,46.9c-6.05,2.03-9.32,8.59-7.28,14.64c2.03,6.05,8.61,9.32,14.64,7.27
			l139.68-46.96c2.61-0.9,25.88-7.89,45.15,19.25c13.01,18.32,34.07,25.08,51.04,27.46l67.3,204.17l-20.24,6.67
			c-2.91,0.96-5.33,3.04-6.71,5.77c-1.39,2.74-1.63,5.91-0.65,8.82l5.11,15.51c-141,36.74-183.8,177.7-218.26,291.57
			c-9.31,30.75-18.1,59.78-28.2,85.7c-50.16,128.66-185.05,184.98-289.38,209.57c-0.76,0.18-1.35,0.63-2.04,0.94
			c-8.15-14.75-19.06-27.76-32.04-38.34l50.9-71.68h40.93c6.39,0,11.56-5.18,11.56-11.56c0-6.38-5.17-11.56-11.56-11.56h-99.92
			c-6.39,0-11.56,5.18-11.56,11.56c0,6.39,5.17,11.56,11.56,11.56h30.63l-41.69,58.71c-18.76-10.43-40.31-16.41-63.25-16.41h-15.78
			c-0.03-0.22,0.04-0.43,0-0.65l-94.5-453.58c-0.62-3-2.42-5.63-4.98-7.31c-2.56-1.67-5.7-2.26-8.69-1.65l-20.62,4.3l-20.64-99.06
			h19.67c16.59,0,30.39-8.82,42.57-16.59c8.92-5.7,17.34-11.08,24.04-11.08h44.41c21.36,0,38.74-17.38,38.74-38.74v-3.92
			c0-21.36-17.38-38.74-38.74-38.74H696.63c-19.79,0-35.89,16.09-35.89,35.88v37.3c0,19.79,16.1,35.88,35.89,35.88h75.11
			l21.62,103.78l-20.64,4.3c-6.25,1.3-10.26,7.43-8.95,13.68l90.87,436.18h-26.29c-38.11-174.45-193.71-305.48-379.41-305.48
			c-121.83,0-233.97,55.43-308.18,152.08l-57.57,30.94c-5.62,3.02-7.73,10.03-4.71,15.65c2.09,3.88,6.07,6.09,10.2,6.09
			c1.85,0,3.73-0.44,5.46-1.38l59.62-32.04c0.05-0.03,0.08-0.08,0.14-0.11c0.6-0.34,1.07-0.89,1.62-1.34
			c0.65-0.54,1.37-1.01,1.87-1.66c0.03-0.04,0.08-0.05,0.11-0.1c69.79-92.16,176.01-145.02,291.44-145.02
			c172.89,0,318.01,120.77,355.68,282.36H782.3C745.1,738.02,609.77,626.89,448.93,626.89c-189.44,0-343.56,154.12-343.56,343.56
			c0,189.43,154.12,343.55,343.56,343.55c138.98,0,258.86-83.01,312.91-202l100.84,18.83l-42.87,60.37h-43.99
			c-6.39,0-11.56,5.17-11.56,11.56s5.17,11.56,11.56,11.56h99.92c6.39,0,11.56-5.17,11.56-11.56s-5.17-11.56-11.56-11.56h-27.57
			l39.55-55.7l27.59,5.15c14.12,5.24,29.32,8.24,45.24,8.24c0,0,0,0,0.01,0l0,0l0,0c63.58-0.01,116.65-45.69,128.25-105.95
			c128.34-28.54,294.33-97.86,359.93-266.11c11.51-29.52,21.19-61.58,30.59-92.64c32.59-107.64,63.49-209.25,161.39-232.28
			l9.67,29.34c1.6,4.87,6.12,7.95,10.97,7.95c1.2,0,2.42-0.19,3.61-0.59l20.24-6.67l36.42,110.5
			c-154.52,56.09-265.22,204.36-265.22,378.02c0,6.39,5.17,11.56,11.56,11.56c6.39,0,11.56-5.17,11.56-11.56
			c0-163.44,104.02-303.02,249.33-356.06l11.07,33.57c-131.23,48.37-225.07,174.67-225.07,322.49
			c0,189.43,154.12,343.55,343.56,343.55c189.43,0,343.55-154.12,343.55-343.55C2202,781.01,2047.88,626.89,1858.45,626.89z
			 M683.86,293.68v-37.3c0-7.03,5.72-12.76,12.77-12.76h229.39c8.61,0,15.62,7.01,15.62,15.61v3.92c0,8.61-7,15.61-15.62,15.61
			h-44.41c-13.45,0-25.16,7.48-36.48,14.72c-10.43,6.66-20.29,12.95-30.12,12.95H696.63C689.58,306.44,683.86,300.72,683.86,293.68z
			 M1704.43,320.9c0-9.77,7.31-18.04,17-19.24l62.87-7.78v68.04l-62.87-7.78c-9.7-1.2-17-9.47-17-19.24V320.9z M883.53,912.87
			l-0.47-2.24h3.45C885.49,911.34,884.53,912.13,883.53,912.87z M788.75,457.93l41.24-8.6l91.31,438.19h-43.06L788.75,457.93z
			 M859.45,910.63l2.3,11.05c0.57,2.75,2.09,5.06,4.14,6.69c-12.71,13.39-22.58,29.44-28.74,47.24c0.02-1.73,0.21-3.44,0.21-5.16
			c0-20.34-1.59-40.31-4.62-59.82H859.45z M809.25,910.63c3.22,19.48,4.98,39.44,4.98,59.82c0,6.12-0.44,12.22-0.74,18.34
			l-21.43-1.76c0.26-5.5,0.42-11.02,0.42-16.58c0-20.41-1.89-40.38-5.32-59.82H809.25z M708.21,970.45c0,3.24-0.13,6.46-0.25,9.67
			l-176.35-14.49c-1.25-21.57-10.72-40.94-25.39-55h194.94C705.73,929.85,708.21,949.86,708.21,970.45z M448.93,1030.26
			c-32.98,0-59.82-26.83-59.82-59.8c0-32.98,26.84-59.82,59.82-59.82c32.98,0,59.81,26.84,59.81,59.82
			C508.74,1003.43,481.91,1030.26,448.93,1030.26z M448.93,887.51c-45.74,0-82.94,37.2-82.94,82.94c0,45.22,36.4,82.04,81.44,82.85
			l228.29,42.62c-44.28,79.72-129.32,133.81-226.79,133.81c-142.96,0-259.28-116.32-259.28-259.28
			c0-142.97,116.32-259.28,259.28-259.28c113.96,0,210.91,73.94,245.59,176.34H448.93z M495.8,1038.8
			c16.94-11.65,29.31-29.43,33.98-50.11l176.3,14.49c-3.17,25.01-9.89,48.92-19.68,71.2L495.8,1038.8z M729.14,1005.08l37.93,3.12
			c-3.19,27.05-9.76,53.07-19.28,77.65l-38.07-7.11C719.37,1055.57,725.97,1030.85,729.14,1005.08z M731.04,982.02
			c0.16-3.84,0.29-7.69,0.29-11.57c0-20.53-2.26-40.53-6.44-59.82h38.78c3.68,19.39,5.68,39.37,5.68,59.82
			c0,4.93-0.15,9.81-0.37,14.69L731.04,982.02z M448.93,1290.88c-176.69,0-320.44-143.74-320.44-320.43
			c0-176.69,143.75-320.44,320.44-320.44c148.01,0,272.84,100.89,309.48,237.5h-39.53C683.37,772.15,575.8,688.05,448.93,688.05
			c-155.72,0-282.4,126.69-282.4,282.4c0,155.72,126.68,282.4,282.4,282.4c108.89,0,203.51-61.98,250.62-152.48l38.9,7.26
			C686.96,1215.86,576.56,1290.88,448.93,1290.88z M790.13,1010.09l40,3.29c-0.06,1.62-0.24,3.2-0.24,4.83
			c0,34.72,13.7,66.23,35.86,89.66l-94.81-17.7C780.41,1064.75,786.91,1037.91,790.13,1010.09z M961.42,1125.72l-40.16-7.5
			c-5.49-2.16-10.73-4.78-15.73-7.78l60.87-85.72c3.69-5.2,2.47-12.42-2.73-16.12c-5.22-3.7-12.42-2.46-16.12,2.73l-60.48,85.18
			c-20.9-19.64-34.05-47.44-34.05-78.31c0-59.31,48.24-107.56,107.55-107.56c59.31,0,107.57,48.26,107.57,107.56
			C1068.12,1077.22,1020.33,1125.25,961.42,1125.72z M1457.18,677.55c-9.67,31.99-18.8,62.2-29.98,90.88
			c-60.67,155.62-214.25,221.89-335.98,250.19c0-0.14,0.02-0.27,0.02-0.42c0-14.65-2.53-28.7-7-41.87
			c109.46-26.1,250.22-85.98,303.72-223.21c10.43-26.76,19.35-56.22,28.9-87.78c34.49-113.99,73.62-243.08,203.25-275.95
			l13.37,40.54C1524.27,456.72,1491.59,563.91,1457.18,677.55z M1633.34,355.68l19.68-6.48c0.2-0.05,0.4-0.03,0.61-0.1
			c0.16-0.05,0.27-0.18,0.42-0.24l19.3-6.36l35.4,107.34l-40.01,13.18L1633.34,355.68z M1858.45,1290.88
			c-176.69,0-320.44-143.74-320.44-320.43c0-137.59,87.18-255.18,209.19-300.5l11.93,36.18
			c-106.86,40.28-183.08,143.55-183.08,264.32c0,155.72,126.68,282.4,282.4,282.4s282.4-126.68,282.4-282.4
			c0-155.71-126.68-282.4-282.4-282.4c-26.82,0-52.74,3.84-77.34,10.85l-11.92-36.15c28.35-8.24,58.28-12.74,89.26-12.74
			c176.69,0,320.43,143.75,320.43,320.44C2178.88,1147.14,2035.14,1290.88,1858.45,1290.88z M1850.29,946.78
			c0.11-0.03,0.23-0.02,0.34-0.05c0.08-0.02,0.12-0.09,0.2-0.11c2.42-0.78,4.95-1.31,7.63-1.31c13.87,0,25.14,11.28,25.14,25.14
			c0,13.87-11.28,25.14-25.14,25.14c-13.87,0-25.14-11.28-25.14-25.14C1833.31,959.46,1840.44,950.19,1850.29,946.78z
			 M1858.45,1018.72c26.61,0,48.27-21.65,48.27-48.27s-21.65-48.27-48.27-48.27c-1.24,0-2.4,0.27-3.62,0.36l-66.48-201.67
			c22.31-6.28,45.8-9.71,70.09-9.71c142.96,0,259.28,116.31,259.28,259.28c0,142.96-116.32,259.28-259.28,259.28
			s-259.28-116.32-259.28-259.28c0-110.55,69.57-205.11,167.21-242.33l66.45,201.58c-13.56,8.56-22.65,23.57-22.65,40.74
			C1810.18,997.06,1831.84,1018.72,1858.45,1018.72z"/>
	</g>
</g>
</svg>
