<?xml version="1.0" encoding="utf-8"?>
<!-- Generator: Adobe Illustrator 24.1.0, SVG Export Plug-In . SVG Version: 6.00 Build 0)  -->
<svg version="1.1" id="Capa_1" xmlns="http://www.w3.org/2000/svg" xmlns:xlink="http://www.w3.org/1999/xlink" x="0px" y="0px"
	 viewBox="0 0 1800 1800" style="enable-background:new 0 0 1800 1800;" xml:space="preserve">
<style type="text/css">
	.st0{fill:#333333;}
	.st1{fill:none;stroke:#333333;stroke-width:46;stroke-linecap:round;stroke-linejoin:round;stroke-miterlimit:10;}
	.st2{fill:none;stroke:#333333;stroke-width:30;stroke-linecap:round;stroke-linejoin:round;stroke-miterlimit:10;}
	.st3{fill:none;stroke:#333333;stroke-width:37;stroke-linecap:round;stroke-linejoin:round;stroke-miterlimit:10;}
	.st4{fill:#E6E6E6;}
</style>
<g>
	<g>
		<path class="st0" d="M729.31,1119.72c-2.33,0-4.68-0.39-6.96-1.24c-119.15-43.7-193.17-128.53-193.17-221.35
			c0-92.83,74.02-177.65,193.17-221.37c9.17-3.4,19.56,0.35,24.47,8.9c4.91,8.53,2.96,19.35-4.62,25.64
			c-55.86,46.3-87.9,114.4-87.9,186.83c0,72.44,32.03,140.53,87.9,186.83c7.58,6.28,9.52,17.09,4.62,25.62
			C743.13,1116.01,736.36,1119.72,729.31,1119.72z M649.43,759.7c-50.65,37.81-79.83,86.45-79.83,137.43
			c0,50.97,29.17,99.6,79.83,137.42c-23.08-41.51-35.54-88.62-35.54-137.42C613.89,848.33,626.35,801.21,649.43,759.7z"/>
	</g>
	<g>
		<path class="st0" d="M1064.45,1119.72c-7.07,0-13.84-3.71-17.53-10.14c-4.89-8.53-2.94-19.34,4.64-25.62
			c55.83-46.3,87.87-114.39,87.87-186.83c0-72.43-32.03-140.53-87.89-186.83c-7.56-6.29-9.51-17.11-4.62-25.64
			c4.91-8.54,15.24-12.27,24.49-8.9c119.15,43.73,193.16,128.54,193.16,221.37c0,92.83-74.01,177.65-193.16,221.35
			C1069.13,1119.33,1066.78,1119.72,1064.45,1119.72z M1144.3,759.69c23.07,41.51,35.55,88.63,35.55,137.43
			c0,48.82-12.45,95.93-35.55,137.43c50.67-37.81,79.85-86.45,79.85-137.43S1194.98,797.51,1144.3,759.69z"/>
	</g>
	<g>
		<path class="st0" d="M896.86,1180.11c-156.03,0-282.98-126.94-282.98-282.99s126.94-282.99,282.98-282.99
			c156.04,0,282.98,126.94,282.98,282.99S1052.9,1180.11,896.86,1180.11z M896.86,654.56c-133.74,0-242.56,108.82-242.56,242.57
			c0,133.76,108.82,242.57,242.56,242.57c133.75,0,242.56-108.81,242.56-242.57C1139.43,763.37,1030.62,654.56,896.86,654.56z"/>
	</g>
	<g>
		<path class="st0" d="M1043.84,917.33c-11.17,0-20.21-9.05-20.21-20.21c0-69.9-56.86-126.76-126.77-126.76
			c-11.16,0-20.21-9.05-20.21-20.21c0-11.16,9.05-20.21,20.21-20.21c92.19,0,167.19,75,167.19,167.18
			C1064.05,908.29,1055.01,917.33,1043.84,917.33z"/>
	</g>
	<g>
		<path class="st0" d="M995.39,1571.7c-11.17,0-20.21-9.04-20.21-20.21v-40.42c0-11.17,9.04-20.21,20.21-20.21
			s20.21,9.04,20.21,20.21v40.42C1015.6,1562.66,1006.56,1571.7,995.39,1571.7z"/>
	</g>
	<g>
		<path class="st0" d="M995.39,1436.81c-11.17,0-20.21-9.04-20.21-20.21v-47.23c0-11.17,9.04-20.21,20.21-20.21
			s20.21,9.04,20.21,20.21v47.23C1015.6,1427.77,1006.56,1436.81,995.39,1436.81z"/>
	</g>
	<g>
		<path class="st0" d="M995.39,1295.1c-11.17,0-20.21-9.04-20.21-20.21v-40.42c0-11.17,9.04-20.21,20.21-20.21
			s20.21,9.04,20.21,20.21v40.42C1015.6,1286.06,1006.56,1295.1,995.39,1295.1z"/>
	</g>
	<g>
		<path class="st0" d="M896.86,1645.38c-32.78,0-66.84-2.37-101.22-7.01c-10.02-1.36-17.5-9.93-17.5-20.03v-456.8
			c0-11.13,5.36-21.69,14.34-28.24c8.89-6.54,20.51-8.41,30.98-5.07c47.66,15.24,99.22,15.22,146.78,0.02
			c10.5-3.37,22.12-1.48,31.02,5.06c8.98,6.57,14.33,17.11,14.33,28.24v72.93c0,11.17-9.04,20.21-20.21,20.21
			s-20.21-9.04-20.21-20.21v-65.48c-50.94,14.76-105.61,14.8-156.61,0v431.49c53.23,5.96,103.36,5.96,156.61,0v-48.98
			c0-11.17,9.04-20.21,20.21-20.21s20.21,9.04,20.21,20.21v66.84c0,10.1-7.48,18.67-17.51,20.03
			C963.69,1643.01,929.65,1645.38,896.86,1645.38z"/>
	</g>
	<g>
		<path class="st0" d="M1414.69,405.57c-5.21,0-10.42-2-14.37-6c-9.22-9.31-18.67-18.38-28.4-27.17c-8.27-7.5-8.9-20.28-1.4-28.55
			c7.5-8.3,20.31-8.9,28.56-1.41c10.24,9.31,20.25,18.87,29.98,28.72c7.86,7.93,7.78,20.73-0.16,28.58
			C1424.95,403.63,1419.82,405.57,1414.69,405.57z"/>
	</g>
	<g>
		<path class="st0" d="M1222.57,266.04c-3.04,0-6.12-0.68-9.04-2.14c-28.62-14.34-58.46-26.82-88.74-37.11
			c-10.56-3.59-16.22-15.07-12.61-25.64c3.58-10.57,15-16.22,25.64-12.63c31.99,10.88,63.55,24.09,93.83,39.24
			c9.97,5,14.01,17.14,9.02,27.12C1237.12,261.96,1229.99,266.04,1222.57,266.04z"/>
	</g>
	<g>
		<path class="st0" d="M937.31,190.4c-14.13-0.74-27.24-1.09-40.44-1.09c-11.16,0-20.21-9.05-20.21-20.21
			c0-11.16,9.05-20.21,20.21-20.21c13.93,0,27.77,0.37,41.53,1.13c11.15,0.61,19.68,10.13,19.07,21.28
			C956.88,182.06,947.96,190.4,937.31,190.4z"/>
	</g>
	<g>
		<path class="st0" d="M896.86,1645.38c-412.58,0-748.24-335.66-748.24-748.25c0-412.58,335.67-748.25,748.24-748.25
			c11.16,0,20.21,9.05,20.21,20.21c0,11.16-9.05,20.21-20.21,20.21c-390.29,0-707.82,317.52-707.82,707.82
			c0,390.29,317.53,707.83,707.82,707.83c390.29,0,707.83-317.54,707.83-707.83c0-187.51-72.59-364.21-204.37-497.56
			c-7.86-7.94-7.78-20.74,0.16-28.59c7.96-7.83,20.74-7.77,28.58,0.17c139.32,140.97,216.05,327.76,216.05,525.97
			C1645.11,1309.72,1309.45,1645.38,896.86,1645.38z"/>
	</g>
	<g>
		<path class="st0" d="M1447.06,599.97c-8.86,0-17-5.88-19.46-14.84c-2.98-10.76,3.34-21.89,14.09-24.86l38.96-10.77
			c10.66-2.9,21.91,3.34,24.87,14.09c2.98,10.77-3.34,21.9-14.09,24.87l-38.96,10.77C1450.67,599.72,1448.85,599.97,1447.06,599.97z
			"/>
	</g>
	<g>
		<path class="st0" d="M1313.03,637.03c-8.86,0-16.97-5.88-19.46-14.83c-2.98-10.76,3.34-21.9,14.09-24.87l44.68-12.36
			c10.66-2.89,21.87,3.34,24.87,14.09c2.98,10.76-3.34,21.9-14.09,24.87l-44.68,12.36C1316.64,636.78,1314.82,637.03,1313.03,637.03
			z"/>
	</g>
	<g>
		<path class="st0" d="M1184.72,672.5c-8.86,0-16.97-5.88-19.46-14.83c-2.98-10.76,3.34-21.89,14.09-24.87l38.96-10.77
			c10.71-2.92,21.89,3.32,24.87,14.09c2.98,10.76-3.34,21.89-14.09,24.87l-38.96,10.77C1188.33,672.25,1186.52,672.5,1184.72,672.5z
			"/>
	</g>
	<g>
		<path class="st0" d="M1234.53,863.14c-8.33,0-16.04-5.16-19-13.32c-18.81-51.91-67.91-97.53-136.3-127.39
			c-6.51,1.93-13.93,0.53-19.4-4.43c-5.31-4.86-10.79-9.54-16.56-13.92c-6.1-4.66-9.04-12.37-7.58-19.9
			c1.44-7.54,7.05-13.61,14.45-15.65l129.21-35.72c10.68-2.93,21.91,3.32,24.87,14.09c2.98,10.76-3.34,21.9-14.09,24.87l-77.78,21.5
			c62.72,30.96,109.83,74.95,133.93,125.45l337.28-93.24c-12.73-51.15-31.11-100.57-54.75-147.34l-37.38,10.33
			c-10.66,2.94-21.89-3.31-24.87-14.09c-2.98-10.76,3.34-21.89,14.09-24.87l53.15-14.69c9.22-2.51,18.75,1.62,23.21,9.95
			c31.99,59.82,55.67,123.98,70.4,190.66c2.31,10.49-3.99,20.97-14.35,23.83l-373.14,103.16
			C1238.13,862.9,1236.31,863.14,1234.53,863.14z"/>
	</g>
	<g>
		<path class="st0" d="M559.22,863.14c-1.79,0-3.61-0.24-5.4-0.73L180.69,759.25c-10.36-2.86-16.66-13.33-14.35-23.83
			c14.67-66.62,38.36-130.76,70.39-190.66c4.46-8.33,14.06-12.45,23.21-9.95L743.6,668.52c7.4,2.04,13,8.11,14.46,15.66
			c1.45,7.54-1.5,15.26-7.61,19.9c-5.75,4.38-11.23,9.07-16.57,13.93c-5.43,4.93-12.81,6.34-19.38,4.42
			c-68.4,29.86-117.49,75.48-136.29,127.38C575.25,857.98,567.53,863.14,559.22,863.14z M210.19,725.47l337.28,93.24
			c24.09-50.5,71.2-94.49,133.94-125.45L264.94,578.13C241.27,624.94,222.91,674.37,210.19,725.47z"/>
	</g>
	<g>
		<path class="st0" d="M896.86,1783C408.4,1783,11,1385.59,11,897.12c0-95.15,15.17-188.98,45.11-279.15
			c-13.82-15.58-21.53-35.52-21.53-56.47c0-38.11,24.97-70.51,59.41-81.69c-1.91-7.11-2.88-14.47-2.88-21.95
			c0-44.15,33.49-80.62,76.41-85.35c-1.09-5.39-1.64-10.86-1.64-16.34c0-47.34,38.52-85.85,85.85-85.85c5.84,0,11.7,0.63,17.53,1.9
			c-0.85-7.03-1.6-13.56-1.6-20.18c0-47.34,38.52-85.85,85.85-85.85c11.43,0,22.72,2.34,33.27,6.83
			C536.7,67.13,712.79,11.25,896.86,11.25c184.08,0,360.17,55.88,510.11,161.76c10.56-4.49,21.85-6.83,33.28-6.83
			c47.35,0,85.85,38.52,85.85,85.85c0,6.62-0.75,13.17-2.25,19.54c6.45-0.61,12.34-1.26,18.18-1.26c47.35,0,85.85,38.52,85.85,85.85
			c0,5.48-0.55,10.95-1.64,16.34c42.91,4.73,76.4,41.2,76.4,85.35c0,7.47-0.97,14.83-2.88,21.95
			c34.44,11.18,59.41,43.57,59.41,81.69c0,20.96-7.72,40.89-21.53,56.47c29.94,90.2,45.12,184.05,45.12,279.15
			C1782.75,1385.59,1385.34,1783,896.86,1783z M119.53,516.05c-24.15,0.02-44.54,20.4-44.54,45.45c0,13.54,6.23,26.35,17.08,35.12
			c6.64,5.37,9.19,14.31,6.39,22.37C67.25,708.6,51.42,802.18,51.42,897.12c0,466.18,379.27,845.46,845.44,845.46
			c466.19,0,845.47-379.27,845.47-845.46c0-94.89-15.83-188.47-47.05-278.14c-2.8-8.05-0.25-17,6.37-22.36
			c10.86-8.77,17.09-21.58,17.09-35.12c0-25.06-20.39-45.43-45.43-45.43c-0.22,0.14-1.28,0.27-2.39,0.31
			c-8.11,0.51-15.1-3.7-18.81-10.52c-3.71-6.84-3.18-15.2,1.38-21.5c5.7-7.89,8.72-17.05,8.72-26.5c0-25.05-20.39-45.44-45.43-45.44
			c-3.2,0-6.61,0.46-10.74,1.47c-8.07,1.93-16.38-1.17-21.18-7.83l-3.12-4.39c-4.76-6.55-5.13-15.31-0.97-22.26
			c4.42-7.37,6.67-15.2,6.67-23.24c0-30.36-30.47-54.26-61.64-42.27c-7.56,2.91-16.1,1.03-21.77-4.79
			c-5.7-5.88-11.45-11.69-17.31-17.4c-5.94-5.78-7.76-14.6-4.56-22.25c2.31-5.57,3.5-11.43,3.5-17.43
			c0-25.05-20.39-45.43-45.43-45.43c-8.43,0-16.8,2.47-24.18,7.14c-6.97,4.43-15.99,4.13-22.68-0.74
			C1248.23,107.45,1076.52,51.67,896.86,51.67c-179.66,0-351.34,55.79-496.52,161.33c-6.71,4.86-15.67,5.17-22.69,0.74
			c-7.38-4.67-15.73-7.14-24.16-7.14c-25.05,0-45.43,20.38-45.43,45.43c0,6,1.18,11.86,3.5,17.45c3.17,7.65,1.37,16.46-4.56,22.24
			c-5.86,5.7-11.6,11.51-17.29,17.38c-5.64,5.81-14.24,7.71-21.78,4.8c-31.29-12-61.65,11.92-61.65,42.27
			c0,8.06,2.24,15.88,6.65,23.23c4.18,6.95,3.8,15.71-0.96,22.27l-3.07,4.31c-4.8,6.73-13.22,9.81-21.23,7.9
			c-4.12-1.01-7.54-1.47-10.73-1.47c-25.06,0-45.43,20.39-45.43,45.44c0,9.44,3.02,18.6,8.72,26.49c4.56,6.3,5.1,14.65,1.39,21.49
			c-3.72,6.83-10.8,11.08-18.79,10.54C122.24,516.35,120.12,516.12,119.53,516.05z"/>
	</g>
</g>
</svg>
