<?xml version="1.0" encoding="utf-8"?>
<!-- Generator: Adobe Illustrator 24.1.0, SVG Export Plug-In . SVG Version: 6.00 Build 0)  -->
<svg version="1.1" id="Capa_1" xmlns="http://www.w3.org/2000/svg" xmlns:xlink="http://www.w3.org/1999/xlink" x="0px" y="0px"
	 viewBox="0 0 1800 1800" style="enable-background:new 0 0 1800 1800;" xml:space="preserve">
<style type="text/css">
	.st0{fill:#333333;}
	.st1{fill:none;stroke:#333333;stroke-width:46;stroke-linecap:round;stroke-linejoin:round;stroke-miterlimit:10;}
	.st2{fill:none;stroke:#333333;stroke-width:30;stroke-linecap:round;stroke-linejoin:round;stroke-miterlimit:10;}
	.st3{fill:none;stroke:#333333;stroke-width:37;stroke-linecap:round;stroke-linejoin:round;stroke-miterlimit:10;}
	.st4{fill:#E6E6E6;}
</style>
<g>
	<g>
		<path class="st0" d="M837.61,1770.34H624.38c-46.18,0-83.76-37.58-83.76-83.76v-59.77c-25.93-8.72-51.66-19.45-76.8-32.02
			l-42.43,42.41c-32.64,32.65-85.77,32.67-118.45,0l-150.77-150.78c-15.82-15.81-24.54-36.85-24.54-59.22
			c0-22.37,8.72-43.4,24.54-59.22l42.42-42.43c-12.57-25.15-23.3-50.88-32.02-76.8H102.8c-46.18,0-83.76-37.58-83.76-83.76V951.77
			c0-46.18,37.58-83.76,83.76-83.76h59.77c8.73-25.93,19.46-51.66,32.03-76.8l-42.42-42.43c-15.82-15.81-24.54-36.85-24.54-59.22
			c0-22.38,8.72-43.41,24.54-59.23l150.77-150.78c32.67-32.67,85.82-32.63,118.45,0l42.43,42.43c25.15-12.58,50.88-23.31,76.8-32.03
			v-59.78c0-46.18,37.57-83.76,83.76-83.76h213.23c46.18,0,83.76,37.58,83.76,83.76v59.78c25.89,8.71,51.62,19.44,76.8,32.03
			l42.43-42.43c32.65-32.63,85.76-32.67,118.45,0l150.78,150.78c32.65,32.65,32.65,85.8,0,118.45l-42.43,42.43
			c12.57,25.13,23.29,50.86,32.03,76.8h59.78c46.19,0,83.76,37.57,83.76,83.76v213.23c0,46.18-37.56,83.76-83.76,83.76h-59.78
			c-8.73,25.93-19.46,51.66-32.03,76.8l42.43,42.43c32.65,32.65,32.65,85.79,0,118.44l-150.78,150.78
			c-32.65,32.64-85.76,32.66-118.45,0l-42.43-42.41c-25.16,12.58-50.89,23.31-76.8,32.02v59.77
			C921.37,1732.76,883.79,1770.34,837.61,1770.34z M460.14,1551.74c3.08,0,6.19,0.74,9.05,2.25c31.38,16.62,63.86,30.15,96.5,40.21
			c8.12,2.51,13.66,10,13.66,18.5v73.88c0,24.84,20.2,45.04,45.04,45.04h213.23c24.83,0,45.04-20.2,45.04-45.04v-73.88
			c0-8.5,5.54-15.99,13.66-18.5c32.6-10.05,65.06-23.58,96.51-40.21c7.51-3.97,16.73-2.59,22.74,3.42l52.41,52.41
			c17.53,17.55,46.13,17.57,63.7,0l150.78-150.78c17.56-17.56,17.56-46.13,0-63.69l-52.43-52.42c-6.01-6.01-7.39-15.24-3.42-22.75
			c16.62-31.39,30.16-63.85,40.21-96.49c2.52-8.12,10.02-13.66,18.51-13.66h73.89c24.83,0,45.04-20.2,45.04-45.04V951.77
			c0-24.83-20.21-45.04-45.04-45.04h-73.89c-8.49,0-15.99-5.54-18.51-13.66c-10.06-32.66-23.59-65.12-40.21-96.49
			c-3.97-7.51-2.59-16.74,3.42-22.75l52.43-52.42c17.56-17.57,17.56-46.13,0-63.7l-150.78-150.78c-17.55-17.57-46.15-17.55-63.7,0
			l-52.41,52.42c-6.01,6.02-15.24,7.38-22.74,3.42c-31.48-16.66-63.94-30.19-96.51-40.21c-8.12-2.5-13.66-10-13.66-18.5v-73.89
			c0-24.83-20.2-45.04-45.04-45.04H624.38c-24.83,0-45.04,20.2-45.04,45.04v73.89c0,8.5-5.54,16-13.66,18.5
			c-32.6,10.05-65.08,23.57-96.5,40.21c-7.51,3.97-16.72,2.6-22.75-3.42l-52.42-52.42c-17.56-17.55-46.13-17.55-63.7,0
			L179.56,657.71c-8.51,8.51-13.2,19.81-13.2,31.85s4.69,23.34,13.2,31.85l52.41,52.42c6.01,6.01,7.4,15.24,3.42,22.74
			c-16.62,31.39-30.15,63.86-40.21,96.5c-2.51,8.12-10,13.66-18.5,13.66H102.8c-24.83,0-45.04,20.2-45.04,45.04v213.23
			c0,24.83,20.2,45.04,45.04,45.04h73.88c8.5,0,15.99,5.54,18.5,13.66c10.06,32.62,23.58,65.09,40.21,96.5
			c3.98,7.51,2.59,16.73-3.42,22.74l-52.41,52.42c-8.51,8.51-13.2,19.81-13.2,31.84c0,12.03,4.69,23.34,13.2,31.85l150.77,150.78
			c17.56,17.55,46.13,17.55,63.7,0l52.42-52.41C450.17,1553.68,455.12,1551.74,460.14,1551.74z"/>
	</g>
	<g>
		<path class="st0" d="M1109.11,1077.74c-10.7,0-19.36-8.67-19.36-19.36c0-12.24-0.62-24.6-1.85-36.75
			c-1.08-10.63,6.67-20.14,17.32-21.21c10.78-0.99,20.14,6.69,21.21,17.32c1.36,13.43,2.04,27.1,2.04,40.64
			C1128.47,1069.07,1119.81,1077.74,1109.11,1077.74z"/>
	</g>
	<g>
		<path class="st0" d="M1072.54,915.29c-7.24,0-14.18-4.07-17.49-11.03c-8.75-18.37-19.17-36.11-30.95-52.76
			c-6.19-8.73-4.1-20.81,4.61-26.99c8.77-6.18,20.82-4.09,27,4.62c13.04,18.44,24.58,38.11,34.28,58.47
			c4.61,9.65,0.51,21.2-9.15,25.81C1078.16,914.68,1075.32,915.29,1072.54,915.29z M949.08,768.83c-3.86,0-7.77-1.15-11.15-3.55
			c-16.65-11.78-34.4-22.19-52.76-30.93c-9.65-4.6-13.75-16.16-9.15-25.81c4.6-9.66,16.2-13.73,25.81-9.15
			c20.35,9.7,40.01,21.23,58.45,34.28c8.73,6.17,10.81,18.26,4.63,26.99C961.13,765.99,955.15,768.83,949.08,768.83z"/>
	</g>
	<g>
		<path class="st0" d="M769.71,701.57c-0.64,0-1.3-0.03-1.96-0.09c-12.15-1.23-24.5-1.85-36.75-1.85
			c-10.69,0-19.36-8.67-19.36-19.36s8.67-19.36,19.36-19.36c13.54,0,27.21,0.69,40.64,2.04c10.63,1.08,18.39,10.58,17.32,21.21
			C787.94,694.13,779.53,701.57,769.71,701.57z"/>
	</g>
	<g>
		<path class="st0" d="M731,1455.85c-219.17,0-397.47-178.31-397.47-397.47c0-219.17,178.31-397.47,397.47-397.47
			c10.69,0,19.36,8.67,19.36,19.36s-8.67,19.36-19.36,19.36c-197.82,0-358.75,160.93-358.75,358.75S533.18,1417.13,731,1417.13
			s358.75-160.93,358.75-358.75c0-10.69,8.66-19.36,19.36-19.36c10.7,0,19.36,8.67,19.36,19.36
			C1128.47,1277.54,950.16,1455.85,731,1455.85z"/>
	</g>
	<g>
		<path class="st0" d="M867.37,1077.74c-10.69,0-19.36-8.67-19.36-19.36c0-11.17-1.57-22.23-4.66-32.86
			c-2.99-10.26,2.91-21.01,13.18-23.99c10.25-3,21,2.91,23.99,13.18c4.12,14.15,6.21,28.84,6.21,43.67
			C886.73,1069.07,878.06,1077.74,867.37,1077.74z"/>
	</g>
	<g>
		<path class="st0" d="M769.26,946.81c-1.8,0-3.61-0.25-5.43-0.79c-10.62-3.09-21.67-4.66-32.84-4.66
			c-10.69,0-19.36-8.67-19.36-19.36c0-10.69,8.67-19.36,19.36-19.36c14.83,0,29.53,2.09,43.67,6.21c10.26,2.99,16.16,13.74,13.17,24
			C785.38,941.31,777.65,946.81,769.26,946.81z"/>
	</g>
	<g>
		<path class="st0" d="M731,1214.11c-85.87,0-155.74-69.86-155.74-155.73S645.12,902.64,731,902.64c10.69,0,19.36,8.67,19.36,19.36
			c0,10.69-8.67,19.36-19.36,19.36c-64.52,0-117.01,52.5-117.01,117.01c0,64.52,52.49,117.01,117.01,117.01
			s117.01-52.49,117.01-117.01c0-10.69,8.67-19.36,19.36-19.36c10.69,0,19.36,8.67,19.36,19.36
			C886.73,1144.25,816.87,1214.11,731,1214.11z"/>
	</g>
	<g>
		<path class="st0" d="M1399.23,824.62c-6.03,0-11.99-2.81-15.77-8.09c-6.22-8.69-4.22-20.79,4.48-27.01
			c70.12-50.22,111.98-131.41,111.98-217.2c0-147.36-119.88-267.24-267.24-267.24c-92.89,0-177.74,47.37-226.97,126.73
			c-5.64,9.07-17.57,11.89-26.66,6.24c-9.08-5.63-11.87-17.57-6.24-26.66c56.34-90.82,153.48-145.03,259.87-145.03
			c168.7,0,305.97,137.25,305.97,305.96c0,98.24-47.91,191.2-128.17,248.68C1407.07,823.45,1403.13,824.62,1399.23,824.62z"/>
	</g>
	<g>
		<path class="st0" d="M1512.25,1034.26c-11.48-0.13-20.04-8.89-19.93-19.58c0.11-10.62,8.77-19.14,19.36-19.14
			c8.45,0,15.83-3.04,21.37-8.57l114.29-114.29c11.47-11.48,11.47-30.16,0-41.65l-39.72-39.73c-6.01-6.01-7.39-15.23-3.43-22.75
			c12.46-23.57,22.61-47.9,30.16-72.34c2.5-8.11,10-13.65,18.49-13.65h56c16.24,0,29.44-13.21,29.44-29.45V491.5
			c0-16.24-13.2-29.45-29.44-29.45h-56c-8.49,0-15.99-5.54-18.49-13.65c-7.54-24.44-17.7-48.77-30.16-72.34
			c-3.97-7.51-2.59-16.73,3.43-22.74l39.72-39.73c11.47-11.49,11.47-30.16,0-41.65l-114.29-114.28c-11.5-11.47-30.14-11.47-41.63,0
			l-39.74,39.73c-6.03,6.03-15.28,7.37-22.74,3.42c-23.52-12.46-47.85-22.6-72.33-30.15c-8.11-2.5-13.65-10-13.65-18.5v-56
			c0-16.24-13.22-29.45-29.45-29.45h-161.62c-16.24,0-29.44,13.2-29.44,29.45v56c0,8.5-5.54,16-13.65,18.5
			c-24.49,7.55-48.82,17.69-72.36,30.15c-7.51,3.96-16.73,2.59-22.74-3.42l-39.72-39.73c-11.12-11.12-30.52-11.12-41.64,0
			l-114.3,114.28c-3.09,3.1-5.44,7.04-6.97,11.72c-3.3,10.16-14.27,15.7-24.4,12.41c-10.17-3.31-15.73-14.24-12.41-24.4
			c3.43-10.54,8.95-19.66,16.4-27.11l114.29-114.28c25.74-25.73,70.65-25.75,96.4,0l29.78,29.78c17.24-8.48,34.86-15.81,52.6-21.93
			V96.17c0-37.59,30.57-68.17,68.16-68.17h161.62c37.59,0,68.18,30.58,68.18,68.17v41.96c17.75,6.12,35.35,13.46,52.58,21.93
			l29.79-29.78c26.59-26.58,69.8-26.58,96.39,0l114.29,114.28c26.59,26.59,26.59,69.83,0,96.41l-29.78,29.78
			c8.47,17.26,15.83,34.86,21.93,52.58h41.97c37.59,0,68.16,30.58,68.16,68.17v161.62c0,37.59-30.57,68.17-68.16,68.17h-41.97
			c-6.11,17.72-13.46,35.32-21.93,52.58l29.78,29.79c26.59,26.57,26.59,69.82,0,96.4l-114.29,114.28
			C1547.57,1027.21,1530.5,1034.26,1512.25,1034.26z"/>
	</g>
</g>
</svg>
