<?xml version="1.0" encoding="utf-8"?>
<!-- Generator: Adobe Illustrator 24.1.0, SVG Export Plug-In . SVG Version: 6.00 Build 0)  -->
<svg version="1.1" id="Capa_1" xmlns="http://www.w3.org/2000/svg" xmlns:xlink="http://www.w3.org/1999/xlink" x="0px" y="0px"
	 viewBox="0 0 2052 1396" style="enable-background:new 0 0 2052 1396;" xml:space="preserve">
<style type="text/css">
	.st0{fill:#333333;}
	.st1{fill:none;stroke:#333333;stroke-width:46;stroke-linecap:round;stroke-linejoin:round;stroke-miterlimit:10;}
	.st2{fill:none;stroke:#333333;stroke-width:30;stroke-linecap:round;stroke-linejoin:round;stroke-miterlimit:10;}
	.st3{fill:none;stroke:#333333;stroke-width:37;stroke-linecap:round;stroke-linejoin:round;stroke-miterlimit:10;}
	.st4{fill:#E6E6E6;}
</style>
<g>
	<g>
		<path class="st4" d="M1696.43,891.51l223.17,49.32c2.99,0.66,6.18-0.07,8.59-2.01c2.41-1.93,3.82-4.86,3.82-7.95v-5.42
			c0-23.32-6.12-46.31-18.1-67.15L1642.7,457.82c-5.06-8.84-11.73-16.43-19.41-22.7c29.38-6.61,51.41-32.87,51.41-64.21v-69.91
			c0-36.31-29.54-65.85-65.86-65.85h-45.28l74.76-80.11l-8.27,35.65c-0.64,2.75-0.1,5.65,1.47,8c1.58,2.34,4.06,3.92,6.85,4.37
			c0.12,0.02,2.35,0.34,6.05,0.34c16.7,0,63.27-6.59,79.72-77.53c19.72-85.07-36.41-115.75-38.81-117.01
			c-2.79-1.47-6.11-1.55-9-0.25c-2.88,1.31-4.98,3.88-5.7,6.97l-23.1,99.64l-92.21,98.81v-12.34c0-5.64-4.56-10.2-10.2-10.2h-35.04
			c-3.16,0-6.14,1.46-8.07,3.97l-57.97,75.05c-12.38,4.15-22.83,13.22-28.38,25.5l-8.76,19.37c-1.79,3.95-3.16,8.04-4.33,12.17
			c-28.47-7.51-61.02-18.25-89.38-33.24c-4.98-2.65-11.16-0.73-13.78,4.25c-2.64,4.98-0.73,11.15,4.25,13.78
			c30.8,16.28,65.63,27.73,95.64,35.56c-0.53,13.08,1.75,26.26,7.06,38.49l9.42,21.68c2.28,5.26,5.52,9.87,9.33,13.87
			c-0.73,1.41-1.25,2.94-1.25,4.64v54.84c0,18.4,1.39,36.94,4.15,55.09l20.56,135.34c2.17,14.29,0.97,29.11-3.31,42.36
			c-4.96,12.94-44.84,117.74-52.23,158.03l-472.18-0.15l4.16-29.13c3.95-27.61,1.3-56.17-7.66-82.62l-35.93-106.01l133.84-29.55
			c25.59-4.71,39.94-26.32,36.71-55.15v-11.67c0-0.08-0.05-0.15-0.05-0.24c1.27-1.32,2.58-2.6,3.62-4.14
			c6.2-9.12,7.48-20.68,3.43-30.95l-9.33-23.65c-6.71-16.98-22.84-27.96-41.1-27.96H826.58c-21.52,0-43.21-1.64-64.48-4.89
			l-120.51-18.4c-4.53-0.67-9.08-0.77-13.54-0.33l-119.72,12.18c-21.54,2.2-43.42,2.17-65.02-0.07l-101.66-10.61
			c-7.98-0.85-15.81,1.76-21.71,7.07c-5.9,5.32-9.28,12.92-9.28,20.86v17.35c0,20.64,11.24,39.66,29.32,49.59l36.77,20.21v4.4
			c0,19.75,7.23,37.95,19.24,52.03c-77.63-9.69-176.99-21.51-200.04-21.51H40.81c-5.64,0-10.2,4.56-10.2,10.2
			c0,5.64,4.56,10.2,10.2,10.2h155.14c26.47,0,165.07,17.17,242.32,27.02c3.06,0.73,6.17,1.35,9.36,1.73l25.34,2.96
			c0.01,0,0.01,0.01,0.02,0.01c0.28,0.04,0.58,0.06,0.86,0.1l10.25,1.2c17.43,2.04,30.68,16.82,30.81,34.29l0.01,21.15
			c-34.38-8.73-68.1-13.53-98.66-16.78l-245.93-26.12c-1.71-0.18-3.37,0.2-4.94,0.86h-49.13c-20.66,0-37.45,16.8-37.45,37.45v82.27
			c0,20.66,16.8,37.45,37.45,37.45h105.48L88.19,955.25c-4.01,3.97-4.02,10.42-0.06,14.43c1.99,2.01,4.61,3.02,7.24,3.02
			c2.6,0,5.19-0.98,7.18-2.96L251.9,821.73l58.77,15.43v70.49c0,7.64,1.07,14.86,2.83,21.83
			c-105.7,17.21-184.71,109.42-184.71,217.23c0,121.47,98.83,220.3,220.3,220.3c89.76,0,171.88-55.94,204.88-139.31h889.67
			c0.07,0,0.13-0.04,0.2-0.04c0.29,0.02,0.57,0.04,0.86,0.04c2.61,0,5.14-1.01,7.04-2.82c2.16-2.06,3.31-4.97,3.14-7.96
			c-2.09-37.08-3.48-138.83,15.16-164.08l75.87-104.28c17.4-23.92,41.14-41.44,67.73-51.3l15.95,44.66
			c-81.65,32.27-139.65,111.81-139.65,204.8c0,121.47,98.83,220.3,220.3,220.3c121.47,0,220.3-98.83,220.3-220.3
			s-98.83-220.3-220.3-220.3c-21.31,0-41.85,3.2-61.35,8.87l-15.65-43.81C1653.65,886.98,1675.18,886.81,1696.43,891.51z
			 M1686.9,35.84c12.04,12.37,28.2,38.68,17.36,85.43c-10.99,47.39-36.48,58.75-51.36,61.23l13.3-57.33l0.82-0.88
			c2.82-3.03,3.41-7.31,1.91-10.9L1686.9,35.84z M1710.22,946.81c110.22,0,199.89,89.67,199.89,199.89s-89.67,199.89-199.89,199.89
			c-110.22,0-199.89-89.67-199.89-199.89c0-84.14,52.34-156.17,126.1-185.6l12.17,34.07c-59.78,24.4-102.06,83.08-102.06,151.53
			c0,9.69,1.01,19.12,2.63,28.35c-0.37,1.48-0.5,3.03-0.15,4.62c0.32,1.44,1,2.68,1.84,3.8c16.75,72.58,81.77,126.9,159.36,126.9
			c90.25,0,163.67-73.42,163.67-163.67s-73.42-163.67-163.67-163.67c-14.63,0-28.74,2.11-42.25,5.73l-12.22-34.21
			C1673.09,949.63,1691.32,946.81,1710.22,946.81z M1710.22,1227.69c9.86,0,19.27-1.86,28.02-5.1l32.63,53.73
			c-18.45,8.67-38.95,13.66-60.65,13.66c-65.74,0-121.13-44.55-137.93-105.01l60.85-13.52
			C1643.61,1204.03,1674.19,1227.69,1710.22,1227.69z M1701.36,1142.9c1.49,4.18,5.41,6.77,9.61,6.77c1.14,0,2.3-0.19,3.43-0.6
			c5.31-1.89,8.08-7.73,6.18-13.03l-17.65-49.42c2.4-0.29,4.82-0.48,7.3-0.48c33.4,0,60.57,27.17,60.57,60.57
			c0,33.41-27.17,60.58-60.57,60.58c-33.41,0-60.58-27.17-60.58-60.58c0-23.75,13.77-44.29,33.72-54.21L1701.36,1142.9z
			 M1788.72,1266.42l-32.34-53.26c21.01-14.64,34.82-38.95,34.82-66.45c0-29.1-15.48-54.59-38.59-68.86l24.49-57.74
			c45.38,24.07,76.39,71.76,76.39,126.61C1853.49,1196.73,1827.68,1240.78,1788.72,1266.42z M1734.04,1069.32
			c-7.54-2.33-15.53-3.59-23.82-3.59c-4.88,0-9.64,0.51-14.28,1.34l-21.08-59.03c11.34-2.89,23.14-4.6,35.37-4.6
			c16.91,0,33.08,3.1,48.16,8.51L1734.04,1069.32z M1676.47,1073.19c-27.83,12.83-47.23,40.92-47.23,73.51
			c0,1.57,0.15,3.1,0.24,4.64l-61.23,13.6c-0.77-5.99-1.29-12.05-1.29-18.25c0-59.61,36.61-110.79,88.51-132.34L1676.47,1073.19z
			 M1654.29,300.99v69.91c0,25.06-20.4,45.45-45.45,45.45h-53.5v-20.8v-117.4v-22.61h53.5
			C1633.9,255.55,1654.29,275.93,1654.29,300.99z M1515.1,211.9h19.83v33.45v22.61h-63.13L1515.1,211.9z M1419.62,352.83
			c29.47,6.67,50.88,9.43,52.72,9.66c0.43,0.06,0.85,0.08,1.27,0.08c5.08,0,9.48-3.78,10.11-8.95c0.7-5.59-3.28-10.68-8.87-11.38
			c-0.45-0.06-22.36-2.89-52.48-9.81c0.87-2.93,1.86-5.84,3.13-8.65l8.76-19.37c4.41-9.74,14.18-16.05,24.88-16.05h75.79v107.2
			c0,11.48-9.35,20.83-20.82,20.83h-54.56c-10.88,0-20.72-6.45-25.05-16.44l-9.42-21.68
			C1421.56,370.15,1419.79,361.5,1419.62,352.83z M1464.5,720.99c5.43-16.75,6.89-34.8,4.24-52.21l-20.55-135.34
			c-2.6-17.14-3.92-34.63-3.92-52.02v-44.64h15.27h49.03l51.86,168.31c16.59,53.85,6.7,113.2-26.44,158.75l-117.23,161.12
			c-1.4,1.92-2.92,3.72-4.49,5.45v-47.97C1412.27,864.21,1444.19,774.04,1464.5,720.99z M1391.86,945.36
			c-8.81,4.08-18.52,6.2-28.51,5.84l-574.13-15.94c-6.27-0.17-12.53-0.68-18.77-1.35v-41.47l621.41,0.2V945.36z M331.07,494.18
			v-17.35c0-2.2,0.9-4.23,2.53-5.7c1.64-1.48,3.71-2.1,5.94-1.94L441.2,479.8c23.01,2.39,46.27,2.42,69.21,0.08l119.73-12.18
			c2.76-0.29,5.6-0.22,8.39,0.2l120.49,18.39c22.28,3.41,45.02,5.13,67.56,5.13h181.96c9.82,0,18.51,5.91,22.12,15.05l9.34,23.65
			c1.59,4.04,1.11,8.4-1.33,11.99c-2.43,3.59-6.33,5.64-10.66,5.64H389.59l-39.77-21.86C338.26,519.53,331.07,507.38,331.07,494.18z
			 M397.16,568.38v-0.22h630.85h3.56v2.05c0,0.41,0.02,0.82,0.07,1.23c1.06,8.7,1.21,29.35-20.41,33.34l-144.55,31.9
			c-14.13,0.83-221.75,12.53-374.37-3.96c-4.25-0.56-22.69-2.97-48.63-6.28C416.8,620.28,397.16,596.51,397.16,568.38z
			 M535.32,686.51c-0.08-11.14-3.62-21.49-9.46-30.21c53.63,4.19,111.24,5.57,163.64,5.57c80.79,0,149.09-3.25,171.43-4.45
			l37.1,109.46c7.94,23.41,10.29,48.72,6.79,73.17l-4.52,31.71H763.93l-84.97-78.28c-43.18-40.79-93.58-65.01-143.63-80.04
			L535.32,686.51z M665.04,808.4l85,78.33v44.17c-4.93-0.96-9.84-2.04-14.7-3.31L249.26,799.96l-1.9-0.53
			c-39.98-11.1-67.9-47.84-67.9-89.33v-23.76l234.65,24.92C491.8,719.51,590.52,738,665.04,808.4z M99.22,785.43v-82.27
			c0-9.4,7.65-17.05,17.05-17.05h42.78v23.98c0,37.39,18.62,71.58,48,92.38h-90.78C106.87,802.48,99.22,794.83,99.22,785.43z
			 M349.08,1346.59c-110.22,0-199.89-89.67-199.89-199.89c0-99.32,73.85-184.18,171.94-197.9c6.81,12.4,17.12,23.76,31.06,34.33
			c-1.04-0.02-2.07-0.11-3.11-0.11c-0.02,0-0.04,0-0.07,0c-0.01,0-0.01,0.01-0.02,0.01c-90.21,0.05-163.58,73.45-163.58,163.67
			c0,90.25,73.42,163.67,163.67,163.67c58.4,0,112.79-31.47,141.95-82.14c0.1-0.17,0.1-0.37,0.18-0.55h40.51
			C499.94,1299.14,427.79,1346.59,349.08,1346.59z M349.08,1207.28c-33.4,0-60.57-27.17-60.57-60.58c0-33.4,27.17-60.57,60.57-60.57
			h237.31L739.14,1150c12.53,4.53,25.63,7.42,38.73,8.56l469.57,48.72H349.08z M467.2,1065.73H359.76l-0.41-61.91
			C402.94,1006.94,442.55,1029.81,467.2,1065.73z M338.94,1003.95l0.41,62.07c-39.77,2.95-71.25,36.16-71.25,76.68v8.01
			c0,8.62,1.49,16.88,4.11,24.62l-52.75,32.02c-8.67-18.45-13.66-38.95-13.66-60.65C205.81,1071.12,264.67,1009.19,338.94,1003.95z
			 M281.25,1193.7c13.84,20.49,37.28,33.99,63.82,33.99h122.15c-26.59,38.66-70.85,62.28-118.15,62.28
			c-50.02,0-94.08-25.81-119.71-64.77L281.25,1193.7z M491.26,1065.73c-5.71-10-12.37-19.25-19.84-27.66l66.17,27.66H491.26z
			 M1529.4,936.54l-75.83,104.23c-22.65,30.68-21.03,129.37-19.64,165.35l-654.12-67.87c-11.51-1-22.86-3.5-33.26-7.25
			l-154.14-64.45c-0.01-0.01-0.03-0.01-0.04-0.02l-210.92-88.19c-34.83-20.47-50.38-42.29-50.38-70.69v-65.1l398.8,104.7
			c0.01,0,0.03,0.01,0.04,0.01l27.74,7.28c0.64,0.17,1.29,0.21,1.94,0.25c0.13,0.01,0.24,0.08,0.38,0.09l28.69,0.8h0l27.34,0.76
			l585.78,16.27c0.09,0,0.19,0,0.28,0c1.35,0,2.66-0.28,3.89-0.78c0.7-0.29,1.26-0.79,1.87-1.22c0.45-0.31,0.96-0.5,1.35-0.88
			c0.02-0.01,0.02-0.04,0.04-0.05c1.88-1.85,3.05-4.41,3.05-7.26v-5.35c8-5.39,15.14-12.14,20.99-20.18l117.23-161.12
			c36.9-50.71,47.91-116.79,29.45-176.74l-50.01-162.31h41.27c22.17,0,42.78,11.95,54.19,31.82l271.2,400.47
			c8.59,14.99,13.64,31.81,14.76,49.03l-210.52-46.53C1635.81,857.23,1568.56,882.73,1529.4,936.54z"/>
	</g>
</g>
</svg>
