<?xml version="1.0" encoding="utf-8"?>
<!-- Generator: Adobe Illustrator 24.1.0, SVG Export Plug-In . SVG Version: 6.00 Build 0)  -->
<svg version="1.1" id="Capa_1" xmlns="http://www.w3.org/2000/svg" xmlns:xlink="http://www.w3.org/1999/xlink" x="0px" y="0px"
	 viewBox="0 0 1800 1800" style="enable-background:new 0 0 1800 1800;" xml:space="preserve">
<style type="text/css">
	.st0{fill:#333333;}
	.st1{fill:none;stroke:#333333;stroke-width:46;stroke-linecap:round;stroke-linejoin:round;stroke-miterlimit:10;}
	.st2{fill:none;stroke:#333333;stroke-width:30;stroke-linecap:round;stroke-linejoin:round;stroke-miterlimit:10;}
	.st3{fill:none;stroke:#333333;stroke-width:37;stroke-linecap:round;stroke-linejoin:round;stroke-miterlimit:10;}
	.st4{fill:#E6E6E6;}
</style>
<g>
	<g>
		<path class="st0" d="M1410.81,325.81c-5.01,0-10.03-1.91-13.85-5.74l-58.59-58.59c-3.68-3.67-5.74-8.66-5.74-13.85
			c0-5.19,2.06-10.18,5.74-13.85l151.22-151.21c3.67-3.67,8.65-5.74,13.85-5.74c5.21,0,10.18,2.06,13.85,5.74l58.57,58.59
			c7.65,7.65,7.65,20.05,0,27.7l-151.2,151.21C1420.83,323.89,1415.82,325.81,1410.81,325.81z M1379.92,247.64l30.9,30.88
			l123.5-123.51l-30.88-30.88L1379.92,247.64z"/>
	</g>
	<g>
		<path class="st0" d="M1577.31,492.31c-5.01,0-10.02-1.91-13.85-5.74l-58.6-58.59c-3.67-3.67-5.74-8.66-5.74-13.85
			c0-5.19,2.07-10.18,5.74-13.85l151.22-151.21c3.68-3.67,8.65-5.74,13.85-5.74c5.21,0,10.18,2.07,13.85,5.74l58.58,58.59
			c7.65,7.65,7.65,20.05,0,27.7l-151.2,151.21C1587.34,490.4,1582.33,492.31,1577.31,492.31z M1546.42,414.14l30.89,30.88
			l123.5-123.51l-30.88-30.89L1546.42,414.14z"/>
	</g>
	<g>
		<path class="st0" d="M402.49,325.81c-5.01,0-10.03-1.91-13.85-5.74L237.43,168.86c-7.65-7.65-7.65-20.05,0-27.7l58.58-58.59
			c7.65-7.65,20.05-7.65,27.7,0l151.21,151.21c7.65,7.65,7.65,20.05,0,27.7l-58.58,58.59C412.51,323.89,407.51,325.81,402.49,325.81
			z M278.98,155.01l123.51,123.51l30.88-30.88L309.87,124.13L278.98,155.01z"/>
	</g>
	<g>
		<path class="st0" d="M235.99,492.31c-5.01,0-10.02-1.91-13.85-5.74L70.93,335.36c-7.65-7.65-7.65-20.05,0-27.7l58.58-58.59
			c7.65-7.65,20.05-7.65,27.7,0l151.21,151.21c7.65,7.65,7.65,20.05,0,27.7l-58.58,58.59C246.01,490.4,241,492.31,235.99,492.31z
			 M112.48,321.52l123.51,123.51l30.88-30.88L143.36,290.63L112.48,321.52z"/>
	</g>
	<g>
		<path class="st0" d="M1404.5,1476.94c-16.24,0-31.51-6.32-43.01-17.8L703.48,801.12c-23.71-23.7-23.71-62.29,0-85.99
			c23.7-23.7,62.29-23.7,85.99,0l658.02,658.01c11.5,11.48,17.81,26.75,17.81,42.99c0,16.24-6.31,31.51-17.81,42.99
			C1436,1470.62,1420.74,1476.94,1404.5,1476.94z M746.47,736.51c-5.54,0-11.08,2.1-15.3,6.32c-8.42,8.43-8.42,22.15,0,30.59
			l658.02,658.01c8.19,8.17,22.4,8.17,30.59,0c4.09-4.09,6.33-9.52,6.33-15.29c0-5.78-2.24-11.2-6.33-15.29L761.77,742.83
			C757.55,738.61,752.01,736.51,746.47,736.51z"/>
	</g>
	<g>
		<path class="st0" d="M1422.15,1609c-44.88,0-89.76-17.08-123.94-51.25l-99.32-99.34c-7.65-7.64-7.65-20.04-0.02-27.69
			c7.17-7.16,7.17-18.83,0-26l-441-441c-6.94-6.94-19.03-6.94-25.98,0c-7.65,7.65-20.05,7.65-27.7,0L534.77,794.3
			c-22.08,13-48.5,16.8-73.62,10.05l-291.6-78.13c-33.16-8.89-59.29-35.02-68.18-68.19L23.25,366.45
			c-7.92-29.54-1.15-61.46,18.13-85.39c3.49-4.32,8.65-6.97,14.2-7.27c5.69-0.25,10.98,1.78,14.9,5.71l271.13,271.13l197.38-197.38
			L267.87,82.13c-3.93-3.93-6-9.35-5.71-14.9c0.3-5.55,2.94-10.71,7.27-14.2c23.93-19.26,55.85-26.03,85.38-18.12l291.6,78.13
			c33.17,8.89,59.3,35.02,68.19,68.18l78.13,291.59c6.74,25.14,2.95,51.56-10.05,73.62l169.42,169.42c7.65,7.65,7.65,20.05,0,27.7
			c-3.47,3.47-5.38,8.08-5.38,12.99s1.91,9.52,5.38,12.99l46.87,46.87c7.65,7.65,7.65,20.05,0,27.7c-7.65,7.65-20.05,7.65-27.7,0
			l-46.87-46.87c-10.88-10.86-16.85-25.32-16.85-40.69c0-8.59,1.86-16.88,5.4-24.43L743.19,562.36c-7.32-7.32-7.68-19.06-0.84-26.82
			c12.78-14.47,17.46-34.14,12.51-52.6l-78.13-291.59c-5.28-19.68-20.79-35.2-40.48-40.48l-291.6-78.14
			c-10.05-2.7-20.62-2.5-30.46,0.32l266.34,266.36c7.65,7.65,7.65,20.05,0,27.7L355.46,592.19c-7.65,7.65-20.05,7.65-27.7,0
			L61.41,325.84c-2.83,9.85-3.02,20.4-0.33,30.47l78.14,291.59c5.28,19.7,20.79,35.21,40.48,40.49l291.6,78.13
			c18.5,4.95,38.12,0.28,52.6-12.51c7.78-6.83,19.52-6.5,26.82,0.83L720.48,924.6c21.34-9.93,47.54-6.13,65.1,11.43l441.01,441.01
			c17.56,17.58,21.37,43.78,11.42,65.1l87.9,87.92c53.07,53.05,139.42,53.05,192.49,0c25.71-25.71,39.86-59.89,39.86-96.24
			c0-36.36-14.16-70.53-39.86-96.24l-87.88-87.89c-21.08,9.88-48.19,5.5-65.14-11.46c-7.63-7.65-7.63-20.06,0.02-27.7
			c7.65-7.63,20.07-7.65,27.72,0.02c6.87,6.92,19.02,6.95,25.96-0.01c3.67-3.67,8.65-5.74,13.85-5.74c5.21,0,10.18,2.07,13.85,5.74
			l99.32,99.34c33.11,33.1,51.34,77.12,51.34,123.94s-18.23,90.84-51.34,123.94C1511.93,1591.92,1467.05,1609,1422.15,1609z"/>
	</g>
	<g>
		<path class="st0" d="M1012.8,877.54c-5.01,0-10.02-1.91-13.85-5.74l-27.7-27.7c-7.65-7.65-7.65-20.05,0-27.7
			c7.65-7.65,20.05-7.65,27.7,0l27.7,27.7c7.65,7.65,7.65,20.05,0,27.7C1022.82,875.63,1017.81,877.54,1012.8,877.54z"/>
	</g>
	<g>
		<path class="st0" d="M1216.03,1080.77c-5.01,0-10.02-1.91-13.85-5.74l-67.74-67.75c-7.65-7.65-7.65-20.06,0-27.7
			c7.65-7.65,20.05-7.65,27.7,0l67.74,67.75c7.65,7.65,7.65,20.06,0,27.7C1226.06,1078.86,1221.04,1080.77,1216.03,1080.77z"/>
	</g>
	<g>
		<path class="st0" d="M1379.24,1243.97c-5.01,0-10.02-1.91-13.85-5.74l-27.7-27.7c-7.65-7.65-7.65-20.05,0-27.7
			c7.65-7.65,20.05-7.65,27.7,0l27.7,27.7c7.65,7.65,7.65,20.05,0,27.7C1389.27,1242.06,1384.26,1243.97,1379.24,1243.97z"/>
	</g>
	<g>
		<path class="st0" d="M391.14,1609c-44.89,0-89.78-17.08-123.94-51.25c-68.33-68.34-68.33-179.54,0-247.88l99.34-99.34
			c7.65-7.65,20.05-7.65,27.7,0c7.17,7.15,18.81,7.15,25.98,0l237.69-237.7c7.65-7.65,20.05-7.65,27.7,0
			c7.65,7.65,7.65,20.05,0,27.7l-237.69,237.7c-17.58,17.56-43.8,21.35-65.1,11.43l-87.92,87.91c-53.06,53.06-53.06,139.41,0,192.48
			c53.07,53.05,139.42,53.06,192.49,0l87.91-87.92c-9.96-21.31-6.15-47.52,11.43-65.1l264.53-264.53c7.65-7.65,20.04-7.65,27.7,0
			c7.65,7.65,7.65,20.05,0,27.7l-264.53,264.53c-3.47,3.47-5.38,8.08-5.38,12.99s1.9,9.52,5.38,12.99c7.65,7.65,7.65,20.05,0,27.7
			l-99.34,99.34C480.92,1591.92,436.02,1609,391.14,1609z"/>
	</g>
	<g>
		<path class="st0" d="M1141.56,923.16c-5.01,0-10.02-1.91-13.85-5.74c-7.65-7.65-7.65-20.05,0-27.7l134.88-134.88
			c7.31-7.35,19.03-7.67,26.82-0.83c14.46,12.76,34.13,17.49,52.59,12.51l291.59-78.13c19.68-5.28,35.22-20.79,40.5-40.5
			l78.13-291.59c2.7-10.08,2.51-20.63-0.32-30.47l-266.34,266.35c-7.65,7.65-20.05,7.65-27.7,0l-225.1-225.08
			c-3.67-3.67-5.74-8.66-5.74-13.85s2.07-10.18,5.74-13.85l266.36-266.35c-9.85-2.83-20.37-3.02-30.47-0.33l-291.59,78.14
			c-19.7,5.28-35.2,20.79-40.48,40.48l-78.15,291.59c-4.93,18.46-0.25,38.13,12.53,52.6c6.85,7.76,6.48,19.5-0.84,26.82
			L962.04,670.41c-7.65,7.65-20.05,7.65-27.7,0c-7.65-7.65-7.65-20.05,0-27.7l96.3-96.29c-12.99-22.05-16.8-48.47-10.06-73.61
			l78.14-291.6c8.88-33.16,35.01-59.28,68.18-68.18L1458.5,34.9c29.48-7.95,61.44-1.15,85.38,18.12c4.34,3.48,6.98,8.65,7.29,14.2
			c0.28,5.55-1.78,10.97-5.72,14.9L1274.3,353.26l197.4,197.38l271.12-271.13c3.92-3.93,9.11-5.94,14.9-5.71
			c5.55,0.3,10.71,2.94,14.19,7.27c19.29,23.91,26.06,55.84,18.14,85.39l-78.13,291.59c-8.89,33.18-35.04,59.31-68.19,68.19
			l-291.6,78.13c-25.12,6.72-51.53,2.95-73.61-10.05l-123.12,123.12C1151.58,921.25,1146.57,923.16,1141.56,923.16z"/>
	</g>
	<g>
		<path class="st0" d="M408.81,1476.94c-16.25,0-31.52-6.32-43-17.81c-23.69-23.7-23.7-62.28-0.01-85.99
			c7.65-7.65,20.06-7.64,27.71-0.01c7.65,7.65,7.65,20.06,0.01,27.71c-8.43,8.44-8.43,22.15,0,30.59c8.42,8.45,22.15,8.43,30.59,0
			l373.03-373.03c7.65-7.65,20.05-7.65,27.7,0c7.65,7.65,7.65,20.05,0,27.7l-373.03,373.03
			C440.32,1470.62,425.05,1476.94,408.81,1476.94z"/>
	</g>
	<g>
		<path class="st0" d="M671.78,1114.47c-5.01,0-10.03-1.91-13.85-5.74c-7.65-7.64-7.65-20.05,0-27.7l27.7-27.71
			c7.63-7.65,20.05-7.65,27.7,0c7.65,7.64,7.65,20.05,0,27.7l-27.7,27.71C681.81,1112.56,676.79,1114.47,671.78,1114.47z"/>
	</g>
	<g>
		<path class="st0" d="M513.13,1273.11c-5.01,0-10.03-1.91-13.85-5.74c-7.65-7.65-7.65-20.05,0-27.7l52.88-52.88
			c7.65-7.65,20.05-7.65,27.7,0c7.65,7.65,7.65,20.04,0,27.7l-52.88,52.88C523.15,1271.2,518.14,1273.11,513.13,1273.11z"/>
	</g>
	<g>
		<path class="st0" d="M379.66,1406.58c-5.01,0-10.03-1.91-13.85-5.74c-7.65-7.65-7.65-20.06,0-27.7l27.71-27.7
			c7.65-7.65,20.05-7.65,27.7,0c7.65,7.65,7.65,20.06,0,27.7l-27.71,27.7C389.68,1404.67,384.67,1406.58,379.66,1406.58z"/>
	</g>
	<g>
		<path class="st0" d="M699.48,1086.76c-5.01,0-10.02-1.91-13.85-5.74c-7.65-7.65-7.65-20.05,0-27.7l53.22-53.22
			c7.65-7.65,20.05-7.65,27.7,0c7.65,7.65,7.65,20.05,0,27.7l-53.22,53.22C709.51,1084.85,704.49,1086.76,699.48,1086.76z"/>
	</g>
	<g>
		<path class="st0" d="M1060.6,842.22c-5.01,0-10.03-1.91-13.85-5.74c-7.65-7.65-7.65-20.05,0-27.7l35.37-35.37
			c4.09-4.09,6.33-9.52,6.33-15.3c0-5.78-2.24-11.2-6.33-15.28c-8.19-8.2-22.4-8.16-30.59-0.01l-35.37,35.36
			c-7.65,7.65-20.05,7.65-27.7,0c-7.65-7.65-7.65-20.06,0-27.7l35.37-35.36c22.94-22.97,63-23.01,85.99,0
			c11.5,11.48,17.81,26.75,17.81,42.99c0,16.24-6.31,31.52-17.81,43.01l-35.37,35.36C1070.63,840.31,1065.61,842.22,1060.6,842.22z"
			/>
	</g>
</g>
</svg>
