<svg version="1.1" id="Capa_1" xmlns="http://www.w3.org/2000/svg" x="0" y="0" viewBox="0 0 155.8 64" xml:space="preserve"><style>.st0{fill:#1d1d1b}</style><path class="st0" d="M.3 9.7l-.3.4v22.3l.3.3h2.6l.3-.3v-9.2l.4-.4h10.1l.3-.3v-2.3l-.3-.3H3.6l-.4-.3V13l.4-.3h10.8l.3-.3v-2.3l-.3-.4H.3zm27.8 0h-3l-.2.3-7.8 20v2.3l.3.3h2l.3-.3 2-4.9.7-.3h8.8l.7.3 2 4.9.3.3h2l.3-.3V30l-7.8-20-.6-.3zm2 14.5h-6.9l-.3-.3 3.6-9.2h.3l3.6 9.2-.3.3zm24.5-3.3v-.3c1.6-.7 3-2.3 3-4.6 0-4.6-3.3-6.2-6.9-6.2h-9.2l-.3.3v22.3l.3.3h9.8c3.6 0 6.9-1.7 6.9-6.6 0-2.9-1.7-4.6-3.6-5.2M44.5 13l.3-.3H50c3 0 4.3.7 4.3 3.3s-1.3 3.3-3.9 3.3h-5.6l-.3-.3v-6zM51 29.8h-6.2l-.3-.3v-6.9l.3-.3h5.6c3.3 0 4.6 1 4.6 3.9-.1 2.6-1.4 3.6-4 3.6m30.4.3l-4.6-7.3v-.3c3-.7 4.9-2.6 4.9-6.2 0-4.6-3-6.6-7.5-6.6H64.1l-.4.3v22.3l.3.3h2.6l.3-.3v-9.2l.3-.3h5.2l.7.3 5.9 9.2.7.3H81l.3-.3.1-2.2zM67.3 19.9l-.3-.3V13l.3-.3h6.9c3 0 4.3 1 4.3 3.6s-1.3 3.6-4.3 3.6h-6.9zM96.4 3.2l-.6.3-3 3.3v.6l.4.3h1.6l.6-.3 3.7-3.3v-.6l-.4-.3h-2.3zm-5.8 19.6l.3-.3h4.5l2.9-2.9h-7.4l-.3-.4V13l.3-.3h11.4l.3-.3v-2.3l-.3-.4H87.6l-.3.4v20.5l3.3-3.2v-4.6z"/><path d="M57 61.1L54 64h12.6l.3-.3v-2.3l-.3-.3H57zM76.9 41L74 44h4.3l.3.3v19.4l.4.3h2.6l.3-.3V44.3l.4-.3h6.8l.3-.3v-2.3l-.3-.4H76.9zm19.4 14.1l3.6-9.2h.3l3.6 9.2-.3.3h-6.9l-.3-.3zM98.6 41l-.3.3-7.8 20v2.3l.3.4h2l.3-.3 2-4.9.7-.3h8.8l.7.3 2 4.9.3.3h2l.3-.3v-2.3l-7.8-20-.3-.3-3.2-.1zm16.3 0l-.3.4v22.3l.3.3H129l.3-.3v-2.3l-.3-.3h-10.8l-.3-.4V41.4l-.3-.4h-2.7zm19.3 0l-.3.4v22.3l.3.3h14.1l.3-.3v-2.3l-.3-.3h-10.8l-.3-.4V41.4l-.4-.4h-2.6z" fill="#ff5c00"/><path class="st0" d="M125 4.6c1 0 1.7-.5 1.7-1.5 0-1.1-.7-1.5-1.7-1.5h-1.7v3h1.7zM121.5.2h3.8c1.8 0 3.2 1 3.2 3 0 1.1-.6 2.3-1.9 2.8l2.4 3.8h-1.9l-2.2-3.6h-1.5v3.6h-1.8V.2h-.1zm14.3 6.2V3.3c0-1.2-1-1.8-2.1-1.8-.9 0-2 .5-2 1.8v3.1c0 1.2 1 1.8 2.1 1.8.9.1 2-.4 2-1.8m-5.9.2V3.5c0-2.3 1.9-3.5 3.8-3.5 2.1 0 3.9 1.4 3.9 3.5v2.9c0 2.3-1.9 3.5-3.8 3.5-2.1 0-3.9-1.2-3.9-3.3m9.3-.2V.1h1.8v6c0 1.2.6 2 1.9 2 1.3 0 1.9-.7 1.9-2v-6h1.8v6.1c0 2.3-1.5 3.6-3.7 3.6-2.2.1-3.7-1.1-3.7-3.4m13-1.8c1 0 1.7-.5 1.7-1.5 0-1.1-.7-1.5-1.7-1.5h-1.9v3h1.9zM148.5.2h3.9c1.8 0 3.2 1 3.2 3 0 1.5-1 3-3.1 3h-2.2v3.6h-1.8V.2zm-32.8 6.1h2.5v.2c0 1.2-.9 1.7-1.9 1.7-1.1 0-2.1-.7-2.1-1.8V3.6l-1.8 1.8v1.1c0 2.1 1.8 3.3 3.9 3.3 1.8 0 3.6-1 3.6-3.1v-2h-4.1l-.1 1.6z"/><path d="M117.6.2l-1.4 1.4c.9 0 1.9.4 1.9 1.6v.1h1.7V3c0-1.5-1-2.4-2.2-2.8"/></svg>