<svg version="1.1" id="Capa_1" xmlns="http://www.w3.org/2000/svg" x="0" y="0" viewBox="0 0 10 10" xml:space="preserve"><style>.st0{fill:#fff}</style><path class="st0" d="M9 7c0 .5-.1.7-.2.9-.1.5-.4.8-.9 1-.1 0-.4.1-.9.1H3c-.5 0-.8-.1-.9-.1-.2-.1-.4-.2-.6-.4-.2-.2-.3-.4-.4-.6 0-.1-.1-.4-.1-.9V3c0-.5.1-.7.2-.9.1-.2.2-.4.4-.6.2-.2.4-.3.6-.4.1 0 .3-.1.8-.1h4c.5 0 .7.1.9.2.2.1.4.2.6.4.2.2.3.4.4.6 0 .1.1.3.1.8v2c.1 1.3.1 1.5 0 2m.9-4c0-.5-.1-.9-.2-1.2-.1-.4-.3-.7-.6-.9-.2-.3-.5-.5-.8-.6C7.9.2 7.6.1 7.1.1 6.5 0 6.4 0 5 0H3c-.5 0-.9.1-1.2.2-.4.2-.7.4-.9.7-.3.2-.5.5-.6.8-.1.4-.2.7-.2 1.3v4c0 .5.1.9.2 1.2.1.3.3.6.6.9.2.3.5.4.9.6.3.1.6.2 1.2.2h4c.5 0 .9-.1 1.2-.2.7-.3 1.2-.8 1.5-1.5.1-.3.2-.6.2-1.2V5c.1-1.3.1-1.5 0-2"/><path class="st0" d="M5 6.7c-.9 0-1.7-.8-1.7-1.7S4.1 3.3 5 3.3s1.7.8 1.7 1.7S5.9 6.7 5 6.7m0-4.3C3.6 2.4 2.5 3.6 2.5 5S3.6 7.6 5 7.6 7.6 6.4 7.6 5 6.4 2.4 5 2.4m3.3-.1c0 .3-.3.6-.6.6s-.6-.2-.6-.6.3-.6.6-.6.6.3.6.6"/></svg>