<?xml version="1.0" encoding="utf-8"?>
<!-- Generator: Adobe Illustrator 24.0.0, SVG Export Plug-In . SVG Version: 6.00 Build 0)  -->
<svg version="1.1" id="Capa_1" xmlns="http://www.w3.org/2000/svg" xmlns:xlink="http://www.w3.org/1999/xlink" x="0px" y="0px"
	 viewBox="0 0 1800 1800" style="enable-background:new 0 0 1800 1800;" xml:space="preserve">
<style type="text/css">
	.st0{fill:#FFFFFF;}
</style>
<g>
	<g>
		<path class="st0" d="M1017.3,899V764.2l-172.7,428.2h-56.8L620,764.2v470.2H518.4V632.5h158.5L817.1,1021l144.3-388.6H1119v242.1
			l-55.9,134.3"/>
	</g>
	<g>
		<path class="st0" d="M850.9,848l-86.7-215.6h113.7l29.5,71.6 M993.3,912.7l69.7,169.3l185.1-449.5h113.7l-242,601.9h-113.7
			L935,1057.3"/>
	</g>
</g>
<g>
	<path class="st0" d="M901.4,1798C407.6,1798,5.9,1396.3,5.9,902.6C5.9,408.8,407.6,7.1,901.4,7.1s895.4,401.7,895.4,895.4
		C1796.8,1396.3,1395.1,1798,901.4,1798z M901.4,61.2C437.4,61.2,60,438.6,60,902.6s377.4,841.4,841.4,841.4
		c463.9,0,841.4-377.4,841.4-841.4S1365.3,61.2,901.4,61.2z"/>
</g>
<g>
	<path class="st0" d="M254.2,790.7l-47.3-5.7l35.6,27.8L241,824l-40.1,18.1l46,5.8l-2.9,23.3l-89.2-11.3l2.6-20.8l55.4-24.8
		l-47.6-37.1l2.6-20.8l89.2,11L254.2,790.7z"/>
	<path class="st0" d="M261.6,690.8l-10.9,36.4l14.7,11.8l-7.5,24.8L183.2,700l7.2-24l97.5-12.3l-7.6,25.3L261.6,690.8z M241.5,692.5
		l-30.9,2.8l24.2,19.3L241.5,692.5z"/>
	<path class="st0" d="M285.3,614.5l-5.9,12.6l21.6,10.1l-10.8,23l-81.4-38.1l17.4-37.2c3.4-7.4,7.7-13.2,12.6-17.5
		c5-4.3,10.4-6.9,16.3-7.7c5.9-0.8,11.9,0.2,18.1,3.1c5.9,2.7,10.4,6.5,13.5,11.3c3.1,4.8,4.7,10.3,4.8,16.6l33.8-5.6l-11.5,24.7
		L285.3,614.5z M251.9,585.5c-3.2,1.4-5.9,4.5-8.1,9.2l-6,12.8l23.9,11.1l6-12.8c2.2-4.7,2.9-8.8,1.9-12.1c-0.9-3.4-3.3-5.9-7.1-7.7
		C258.7,584.3,255.1,584.1,251.9,585.5z"/>
	<path class="st0" d="M337.4,558.6c-7.4,4.1-15.3,6-23.6,5.7c-8.3-0.3-16.2-2.9-23.7-7.8c-7.5-4.9-13.1-11.1-16.7-18.5
		c-3.6-7.5-5.1-15.4-4.3-23.9c0.8-8.4,3.7-16.6,8.8-24.5c4.5-6.9,9.7-12.3,15.8-16.2c6-3.9,12.5-6.2,19.5-6.9l3.4,21.5
		c-9.1,1-15.9,5-20.4,12c-2.7,4.1-4.1,8.3-4.4,12.7c-0.3,4.4,0.6,8.5,2.7,12.4c2.1,3.9,5.3,7.2,9.5,10c4.2,2.8,8.6,4.3,13,4.7
		c4.4,0.4,8.5-0.4,12.4-2.5c3.9-2,7.1-5.1,9.8-9.2c4.5-7,5.5-14.8,2.7-23.5l21.1-5.6c2.2,6.7,2.7,13.5,1.6,20.6
		c-1.2,7.1-4,14.1-8.5,21C351.1,548.5,344.8,554.5,337.4,558.6z"/>
	<path class="st0" d="M413.6,433.5l14.9,12.8l-47.1,54.7l-68.1-58.6l46-53.4l14.9,12.8l-29.6,34.4l11.5,9.9l26-30.3l14.4,12.4
		l-26,30.3l12.5,10.7L413.6,433.5z"/>
	<path class="st0" d="M376.4,371.8l18.8-17.1l47,51.5l31.7-28.9l13.6,14.9l-50.5,46L376.4,371.8z"/>
	<path class="st0" d="M480.1,365.9c-3.8-0.5-7-2.5-9.7-5.9c-2.6-3.5-3.7-7.1-3.1-10.9c0.6-3.8,2.6-6.9,6-9.5
		c3.5-2.6,7.1-3.7,10.8-3.2c3.8,0.5,7,2.5,9.6,5.9c2.6,3.5,3.7,7.1,3.2,10.9c-0.5,3.8-2.5,7-6,9.6
		C487.6,365.4,484,366.4,480.1,365.9z"/>
	<path class="st0" d="M478.5,287.4l21.5-13.6l37.2,59l36.3-22.9l10.7,17.1l-57.8,36.4L478.5,287.4z"/>
	<path class="st0" d="M554.2,212.1L576,201l-12.6,28.4l-15.5,7.9L554.2,212.1z M551,243.9l22.6-11.6l40.9,80.1l-22.6,11.6L551,243.9
		z"/>
	<path class="st0" d="M720.8,177l-9.1,97.4l-23.8,7.7l-64.1-73.8l26.2-8.4l41.2,48.2l5.8-63.4L720.8,177z"/>
	<path class="st0" d="M818.8,231l3.5,19.3l-71,12.7l-15.8-88.5l69.4-12.4l3.5,19.3l-44.6,8l2.7,14.9l39.3-7l3.4,18.7l-39.3,7
		l2.9,16.2L818.8,231z"/>
	<path class="st0" d="M915.4,155.8l3.4,89.8l-20.9,0.8L856.5,200l1.8,47.9l-24.9,0.9L830,159l20.9-0.8l41.4,46.4l-1.8-47.9
		L915.4,155.8z"/>
	<path class="st0" d="M944.1,156.8l42.2,4.9c9.8,1.1,18.2,4,25.4,8.5c7.1,4.5,12.4,10.4,15.8,17.6s4.6,15.3,3.5,24.3
		c-1,9-4,16.6-9,22.9c-4.9,6.2-11.4,10.7-19.4,13.5c-8,2.8-16.9,3.6-26.6,2.5l-42.2-4.9L944.1,156.8z M977.3,230.7
		c7.6,0.9,14-0.6,19.2-4.4c5.1-3.8,8.2-9.5,9-17.2c0.9-7.6-0.7-13.9-4.9-18.8c-4.1-4.9-10-7.8-17.7-8.6l-15.9-1.9l-5.7,49
		L977.3,230.7z"/>
	<path class="st0" d="M1079.9,246.6l-13.4-3.6l-6.2,23.1l-24.6-6.6l23.5-86.8l39.7,10.7c7.9,2.1,14.3,5.3,19.4,9.4
		c5.1,4.2,8.5,9.1,10.4,14.8c1.8,5.7,1.9,11.8,0.1,18.3c-1.7,6.3-4.6,11.4-8.8,15.2c-4.2,3.9-9.4,6.4-15.5,7.6l11.3,32.3l-26.3-7.1
		L1079.9,246.6z M1102.6,208.7c-2-2.9-5.5-5.1-10.5-6.4l-13.6-3.7l-6.9,25.4l13.6,3.7c5,1.4,9.1,1.3,12.3-0.2
		c3.2-1.5,5.3-4.3,6.4-8.3C1105,215.1,1104.6,211.6,1102.6,208.7z"/>
	<path class="st0" d="M1198.4,294.6l-7.6,18.1l-66.5-28l34.9-82.8l65,27.4l-7.6,18.1l-41.8-17.6l-5.9,14l36.8,15.5l-7.4,17.5
		l-36.8-15.5l-6.4,15.1L1198.4,294.6z"/>
	<path class="st0" d="M1245.8,240.4l22,12.7l-34.7,60.5l37.2,21.3l-10,17.5l-59.2-34L1245.8,240.4z"/>
	<path class="st0" d="M1319.5,284.4l20.5,15.1l-41.4,56.1l34.5,25.5l-12,16.2l-54.9-40.6L1319.5,284.4z"/>
	<path class="st0" d="M1381.8,453.6c-2.7-5.8-4-11.1-4-15.8l12.8-4c0.2,4.4,1.4,9.1,3.4,14.1c2,5,4.8,9.4,8.1,13.2
		c4.2,4.7,8.1,7.6,11.7,8.6c3.6,1,6.6,0.4,9.1-1.8c1.8-1.6,2.7-3.6,2.8-5.9c0-2.4-0.5-4.8-1.6-7.4c-1.1-2.6-2.7-6-4.9-10.2
		c-3.1-5.9-5.5-10.8-6.9-14.9c-1.5-4-2-8.2-1.4-12.5c0.6-4.3,2.9-8.3,7.2-12c3.5-3.1,7.6-5,12.2-5.6c4.6-0.6,9.4,0.2,14.5,2.6
		c5.1,2.4,10.1,6.3,15.1,11.9c3.4,3.9,6.3,8.2,8.7,12.8c2.3,4.6,3.8,9.1,4.4,13.5l-12.5,4.4c-0.8-4.3-2.2-8.3-4-12.1
		c-1.8-3.8-4-7.1-6.5-10c-4.1-4.7-8-7.5-11.6-8.4c-3.6-0.9-6.7-0.2-9.3,2.1c-1.8,1.6-2.7,3.6-2.7,5.9s0.5,4.8,1.6,7.4
		c1.1,2.6,2.8,6,5,10.2c3.1,5.7,5.4,10.6,6.9,14.7c1.5,4.1,2,8.3,1.4,12.6c-0.5,4.3-2.9,8.3-7,11.9c-3.5,3.1-7.6,5-12.1,5.6
		c-4.5,0.6-9.4-0.3-14.5-2.7c-5.1-2.4-10.2-6.4-15.1-12C1388,464.8,1384.5,459.5,1381.8,453.6z"/>
	<path class="st0" d="M1436.2,507.5c1.8-9.1,7.8-17.2,18-24.1l39.8-27l8.9,13.1l-39.3,26.6c-13.8,9.4-16.7,20-8.6,32
		c8.1,11.9,19,13.1,32.8,3.8l39.3-26.6l8.7,12.9l-39.8,27c-10.2,6.9-19.9,9.5-29,7.8c-9.1-1.7-17-7.4-23.6-17.1
		S1434.5,516.6,1436.2,507.5z"/>
	<path class="st0" d="M1539.3,631c-2,4.1-5.5,7.3-10.3,9.6c-6.6,3.2-13,3.2-19.1-0.1c-6.1-3.3-11.5-9.9-16.3-19.6l-18.6-38
		l76.5-37.5l17.6,35.8c4.4,9,6.1,16.8,4.9,23.5s-4.8,11.4-11,14.5c-3.8,1.9-7.6,2.6-11.3,2.3c-3.8-0.3-7.2-1.6-10.3-3.9
		C1542,622.5,1541.4,627,1539.3,631z M1523.5,625.7c7.4-3.6,8.3-10.9,2.9-21.9l-11.2-22.9l-22.1,10.8l11.2,22.9
		C1509.8,625.6,1516.1,629.3,1523.5,625.7z M1547.3,565.1l-21.1,10.3l9.9,20.1c2.4,4.9,5.2,8.3,8.3,10.1c3.1,1.8,6.3,1.8,9.8,0.2
		c3.5-1.7,5.5-4.3,6-7.9c0.5-3.5-0.5-7.8-2.9-12.7L1547.3,565.1z"/>
	<path class="st0" d="M1537,738.2l53.9-16.8l-52.9-12.9l-2.1-6.7l35.6-40.3l-53.2,16.5l-4.5-14.4l81.3-25.2l3.9,12.4l-43.9,49
		l63.8,15l3.9,12.4l-81.3,25.3L1537,738.2z"/>
	<path class="st0" d="M1627.8,756.9l2.9,15.5l-83.7,15.8l-2.9-15.5L1627.8,756.9z"/>
	<path class="st0" d="M1642.7,876.9l-84.8,7.2l-1.1-13l53.5-51.6l-57.4,4.9l-1.3-15.6l84.8-7.2l1.1,13l-53.5,51.6l57.5-4.9
		L1642.7,876.9z"/>
	<path class="st0" d="M1642.2,906.1l-0.3,15.8l-85.1-1.4l0.3-15.8L1642.2,906.1z"/>
	<path class="st0" d="M1557.2,949.4c2.5-5.9,5.4-10.5,8.8-13.7l11.7,6.7c-3.1,3.2-5.8,7.2-8,12.1c-2.2,4.9-3.6,9.8-4.1,14.9
		c-0.6,6.3-0.1,11.1,1.6,14.4c1.7,3.3,4.2,5.1,7.5,5.5c2.4,0.2,4.5-0.4,6.3-2c1.7-1.6,3.2-3.7,4.3-6.2c1.2-2.6,2.5-6.1,4.1-10.6
		c2.2-6.3,4.2-11.4,6.2-15.2c1.9-3.8,4.7-7,8.2-9.6s8.1-3.5,13.7-3c4.7,0.5,8.8,2.2,12.4,5.1c3.6,2.9,6.2,7.1,8,12.4
		c1.8,5.3,2.3,11.7,1.5,19.2c-0.5,5.2-1.7,10.2-3.5,15.1c-1.8,4.9-4.1,9-6.9,12.4l-11.7-6.2c2.5-3.5,4.6-7.2,6.1-11.1
		c1.5-3.9,2.5-7.8,2.9-11.6c0.6-6.2,0-10.9-1.8-14.2c-1.8-3.2-4.4-5-7.9-5.4c-2.4-0.2-4.5,0.4-6.2,2c-1.7,1.6-3.1,3.7-4.3,6.2
		s-2.5,6.1-4.1,10.6c-2.1,6.2-4.1,11.2-6.1,15c-2,3.9-4.7,7.1-8.2,9.6c-3.5,2.5-8,3.5-13.5,3c-4.7-0.5-8.8-2.2-12.3-5.1
		c-3.5-2.9-6.2-7.1-7.9-12.5c-1.7-5.4-2.2-11.8-1.5-19.2C1553.2,961.5,1554.8,955.3,1557.2,949.4z"/>
	<path class="st0" d="M1614.6,1046.1l5.8-27.6l13.1,2.8l-15,70.7l-13.1-2.8l5.8-27.6l-70.2-14.9l3.3-15.5L1614.6,1046.1z"/>
	<path class="st0" d="M1514.5,1136.3l29.2-8.4c0.2-0.7,0.5-1.8,0.9-3.2l6.2-18.2l-23.5-8l5.1-15l80.6,27.5l-11.3,33.2
		c-2.4,7-5.6,12.7-9.7,17.1c-4.1,4.4-8.7,7.2-14,8.5c-5.2,1.3-10.8,0.9-16.7-1.1c-6.1-2.1-10.8-5.3-14.1-9.8
		c-3.4-4.4-5.2-9.8-5.4-16.1l-32.8,9.5L1514.5,1136.3z M1580.2,1152.7c3.9-2.4,7-6.9,9.2-13.4l6-17.5l-32.1-11l-6,17.5
		c-2.2,6.5-2.5,11.9-0.9,16.3c1.6,4.3,5,7.4,10.2,9.1C1571.7,1155.5,1576.2,1155.1,1580.2,1152.7z"/>
	<path class="st0" d="M1496.6,1222.6l19-38.1l-13.9-16.3l7.3-14.6l59.1,72.3l-7,13.9l-93.4-3.6l7.4-14.8L1496.6,1222.6z
		 M1510,1223.5l40.5,2.2l-26.2-30.9L1510,1223.5z"/>
	<path class="st0" d="M1418.6,1306.8l46.1,32.5l-22-49.8l4.1-5.8l53.7,3.7l-45.5-32.2l8.7-12.3l69.5,49.2l-7.5,10.6l-65.6-5
		l26.9,59.7l-7.5,10.6L1410,1319L1418.6,1306.8z"/>
	<path class="st0" d="M1362,1388.9l-9.6-9.1l44-46.3l61.7,58.7l-42.9,45l-9.6-9.1l32-33.6l-16-15.3l-28.4,29.8l-9.4-9l28.3-29.8
		l-17-16.2L1362,1388.9z"/>
	<path class="st0" d="M1336.2,1503.7l-53.4-66.3l10.1-8.2l72.7,15.5l-36.2-44.9l12.2-9.8l53.4,66.3l-10.1,8.2l-72.7-15.5l36.2,44.9
		L1336.2,1503.7z"/>
	<path class="st0" d="M1288.5,1518.7l24-14.8l7,11.4l-61.6,37.8l-7-11.4l24-14.8l-37.6-61.1l13.5-8.3L1288.5,1518.7z"/>
	<path class="st0" d="M1199.5,1488.9c6.3-0.9,11.8-0.8,16.3,0.5l0.3,13.4c-4.3-1-9.2-1.2-14.5-0.6c-5.3,0.6-10.3,2-14.9,4.2
		c-5.7,2.7-9.6,5.6-11.5,8.8c-2,3.2-2.2,6.3-0.8,9.3c1,2.2,2.7,3.6,4.9,4.3c2.3,0.7,4.8,0.9,7.6,0.5c2.8-0.3,6.5-1,11.2-1.9
		c6.5-1.4,11.9-2.2,16.2-2.5c4.3-0.3,8.4,0.4,12.4,2.1c4,1.7,7.2,5.1,9.6,10.2c2,4.3,2.7,8.7,2,13.2c-0.7,4.6-2.8,9-6.5,13.2
		c-3.7,4.3-8.9,8-15.6,11.2c-4.7,2.2-9.6,3.8-14.7,4.8c-5.1,1-9.8,1.1-14.2,0.5l-0.7-13.2c4.3,0.4,8.5,0.2,12.7-0.5
		c4.2-0.7,7.9-1.9,11.4-3.5c5.6-2.7,9.4-5.6,11.2-8.8s2-6.4,0.5-9.5c-1-2.2-2.7-3.6-4.9-4.3c-2.2-0.6-4.8-0.8-7.5-0.5
		c-2.8,0.3-6.5,1-11.2,1.9c-6.3,1.4-11.7,2.2-16,2.5c-4.3,0.3-8.5-0.4-12.5-2.1c-4-1.7-7.2-5-9.5-10c-2-4.3-2.7-8.6-2-13.2
		c0.7-4.5,2.9-8.9,6.6-13.2c3.7-4.3,9-8,15.7-11.2C1187,1491.7,1193.2,1489.8,1199.5,1488.9z"/>
	<path class="st0" d="M1031.7,1570.3l48.1-11.2l5.1-25.8l6.5-1.5l-18.9,91.8l-6,1.4l-57.4-74.1l6.5-1.5L1031.7,1570.3z
		 M1035.1,1574.9l32.9,42.8l10.6-52.9L1035.1,1574.9z"/>
	<path class="st0" d="M991,1561.6c6.5,5.6,10.4,14.4,11.5,26.4l4.7,48.8l-6.2,0.6l-4.7-48.5c-1-10.4-4.1-18-9.4-22.7
		c-5.3-4.7-12.4-6.6-21.4-5.7c-9,0.9-15.6,4.1-19.8,9.7c-4.3,5.6-5.9,13.6-4.9,24.1l4.7,48.5l-6.2,0.6l-4.7-48.8
		c-1.1-11.9,1-21.3,6.3-28.1c5.4-6.8,13.4-10.7,24.2-11.7C975.8,1553.7,984.5,1556,991,1561.6z"/>
	<path class="st0" d="M888.1,1637.9l30.6,0.7l-0.1,5.6l-67.5-1.5l0.1-5.6l30.6,0.7l1.7-79.5l6.2,0.1L888.1,1637.9z"/>
	<path class="st0" d="M827.4,1559.8c6.1,4.7,10.6,10.6,13.5,17.6c2.9,7.1,3.7,14.6,2.5,22.6c-1.2,8-4.1,15-8.9,20.9
		c-4.8,6-10.7,10.3-18,13.1c-7.2,2.8-14.9,3.5-23.2,2.3c-8.3-1.2-15.5-4.1-21.6-8.8c-6.1-4.7-10.6-10.5-13.5-17.6
		c-2.9-7-3.7-14.6-2.5-22.7c1.2-8.1,4.2-15.1,8.9-21.1c4.8-6,10.7-10.3,17.9-13c7.2-2.7,14.9-3.5,23.2-2.3
		C814.1,1552.1,821.3,1555.1,827.4,1559.8z M785.2,1558.6c-6.2,2.4-11.3,6.2-15.4,11.3c-4.1,5.2-6.7,11.2-7.7,18.2
		c-1,7-0.3,13.5,2.2,19.7c2.5,6.1,6.3,11.2,11.5,15.3c5.2,4,11.4,6.6,18.4,7.6c7.1,1,13.7,0.4,19.9-2s11.4-6.2,15.5-11.3
		c4.1-5.2,6.7-11.3,7.7-18.2c1-7,0.3-13.5-2.2-19.7c-2.5-6.1-6.3-11.2-11.6-15.3c-5.3-4.1-11.4-6.6-18.5-7.6
		C797.9,1555.6,791.3,1556.2,785.2,1558.6z"/>
	<path class="st0" d="M710.8,1567.5l-29.9-9.3l1.6-5.2l29.9,9.3L710.8,1567.5z"/>
	<path class="st0" d="M572.2,1471.3l-32.8,65.1l59.6-38.8l2.7,1.4l4.1,70.8l32.8-64.8l5.4,2.7l-38.4,76l-4.7-2.4l-4.3-75.9
		l-63.7,41.5l-4.6-2.3l38.3-76L572.2,1471.3z"/>
	<path class="st0" d="M530.8,1450.5c3.2,7,4.5,14.3,3.7,21.9c-0.8,7.6-3.5,14.6-8.3,21.2c-4.8,6.6-10.6,11.4-17.6,14.4
		c-7,3-14.3,4.1-22,3.2c-7.7-0.9-14.9-3.8-21.6-8.8c-6.8-4.9-11.7-10.9-15-17.8c-3.2-7-4.5-14.3-3.7-21.8c0.8-7.6,3.6-14.7,8.4-21.3
		c4.8-6.6,10.7-11.5,17.7-14.5c7-3,14.3-4.1,21.9-3.2c7.6,1,14.8,3.9,21.6,8.8C522.6,1437.5,527.6,1443.5,530.8,1450.5z M494,1429.8
		c-6.6-0.8-12.9,0.2-18.9,2.9c-6,2.7-11.2,6.9-15.3,12.6c-4.1,5.7-6.6,11.8-7.2,18.4c-0.7,6.6,0.4,12.9,3.1,18.9
		c2.7,6,7,11.1,12.8,15.3c5.8,4.2,11.9,6.7,18.5,7.5c6.6,0.8,12.9-0.1,19-2.8c6-2.7,11.2-6.8,15.3-12.6c4.1-5.7,6.6-11.8,7.2-18.4
		c0.7-6.6-0.4-12.9-3.2-18.9c-2.8-6-7-11.2-12.8-15.4C506.7,1433,500.5,1430.5,494,1429.8z"/>
	<path class="st0" d="M400.7,1441.5l22.4,21l-3.8,4.1l-49.3-46.2l3.8-4.1l22.4,21l54.4-58l4.5,4.2L400.7,1441.5z"/>
	<path class="st0" d="M407.6,1342.7c1.4,7.6,0.8,15-1.8,22.1c-2.6,7.2-7,13.3-13.2,18.5c-6.2,5.2-13.1,8.4-20.6,9.6
		c-7.5,1.2-14.9,0.5-22.1-2.3s-13.5-7.4-18.8-13.8c-5.3-6.4-8.7-13.4-10.2-21c-1.4-7.6-0.9-14.9,1.7-22.1c2.6-7.2,7-13.4,13.3-18.6
		c6.3-5.3,13.2-8.5,20.7-9.7c7.5-1.3,14.9-0.5,22,2.3c7.2,2.8,13.4,7.4,18.8,13.8C402.8,1328.1,406.2,1335.1,407.6,1342.7z
		 M376.9,1313.6c-6.2-2.3-12.5-3-19-1.9c-6.5,1.1-12.5,3.9-17.9,8.4c-5.4,4.5-9.3,9.9-11.5,16.1c-2.3,6.2-2.8,12.6-1.6,19.1
		c1.2,6.5,4.1,12.5,8.6,18c4.6,5.5,10,9.4,16.2,11.8c6.2,2.4,12.6,3,19.1,1.9c6.5-1.1,12.5-3.9,17.9-8.4c5.4-4.5,9.3-9.9,11.5-16.1
		c2.3-6.2,2.8-12.6,1.6-19.1s-4.1-12.5-8.7-18C388.5,1319.8,383.1,1315.9,376.9,1313.6z"/>
	<path class="st0" d="M315.8,1270.7l-16.1-26.8l4.7-2.8l16.1,26.8L315.8,1270.7z"/>
	<path class="st0" d="M247.9,1135.5c2.2-4.4,5.9-7.6,11.3-9.9c6.7-2.7,12.8-2.4,18.4,1c5.6,3.4,10.4,9.9,14.3,19.5l14.5,35.1
		l-78.7,32.5l-13.6-32.8c-3.5-8.5-4.5-15.9-3-22.1c1.5-6.2,5.5-10.6,12-13.3c4.5-1.9,8.8-2.2,12.8-1.1c4.1,1.1,7.6,3.4,10.6,6.9
		C245.3,1145.1,245.7,1139.9,247.9,1135.5z M230.3,1205.9l31.4-12.9l-11.1-26.9c-2.9-6.9-6.4-11.7-10.6-14.3
		c-4.2-2.6-8.9-2.9-14-0.7c-5.1,2.1-8.2,5.6-9.3,10.4c-1.1,4.8-0.3,10.7,2.6,17.6L230.3,1205.9z M275.9,1132.4
		c-4.3-2.8-9.2-3.1-14.8-0.8c-5.5,2.3-8.8,5.9-9.8,11c-1,5,0.1,11.4,3.2,19l12.1,29.4l32.5-13.4l-12.1-29.4
		C283.9,1140.5,280.1,1135.3,275.9,1132.4z"/>
	<path class="st0" d="M193.3,1122.1l-1.8-5.9l81.5-24.9l1.8,5.9L193.3,1122.1z"/>
	<path class="st0" d="M257.3,1053c-2.3,7.3-6.3,13.5-11.9,18.6c-5.6,5.1-12.5,8.5-20.5,10.2c-8,1.7-15.6,1.3-22.9-1.1
		c-7.2-2.4-13.3-6.5-18.3-12.3s-8.4-12.8-10.1-20.9c-1.3-6-1.5-11.8-0.6-17.3c0.9-5.5,2.9-10.4,5.9-14.8l4.7,3
		c-5.2,8-6.7,17.3-4.6,27.7c1.5,7,4.4,13,8.7,18.1c4.4,5.1,9.7,8.6,16,10.7c6.3,2.1,12.9,2.4,19.8,1s12.8-4.4,17.7-8.8
		c4.9-4.4,8.4-9.8,10.3-16.2c2-6.4,2.3-13.1,0.8-20c-2.2-10.3-7.3-18.2-15.3-23.5l3.1-4.6c4.6,2.8,8.4,6.5,11.4,11.2
		c3,4.7,5.2,10,6.4,16C259.9,1038,259.6,1045.7,257.3,1053z"/>
	<path class="st0" d="M165.4,990.9l-0.7-6.2l84.6-9.7l0.7,6.2L165.4,990.9z"/>
</g>
</svg>
