<?xml version="1.0" encoding="utf-8"?>
<!-- Generator: Adobe Illustrator 24.3.0, SVG Export Plug-In . SVG Version: 6.00 Build 0)  -->
<svg version="1.1" id="Capa_1" xmlns="http://www.w3.org/2000/svg" xmlns:xlink="http://www.w3.org/1999/xlink" x="0px" y="0px"
	 viewBox="0 0 141.2 139.3" style="enable-background:new 0 0 141.2 139.3;" xml:space="preserve">
<style type="text/css">
	.st0{clip-path:url(#SVGID_2_);fill:#FFFFFF;}
</style>
<g>
	<defs>
		<rect id="SVGID_1_" x="0.5" width="140.7" height="139.3"/>
	</defs>
	<clipPath id="SVGID_2_">
		<use xlink:href="#SVGID_1_"  style="overflow:visible;"/>
	</clipPath>
	<path class="st0" d="M90.3,75.8V62h-4.5v6.4l-0.9-1.2L81,62h-4.2v13.8h4.5v-6.3l1,1.2l3.9,5.1H90.3z M72.3,62h-4.9v13.8h4.9V62z
		 M63.4,71.5c0-4.5-8.1-3.9-8.1-5.7c0-0.5,0.5-0.9,1.6-0.9c1.3,0,2.7,0.6,3.9,1.6l2.6-2.2c-1.5-1.5-3.6-2.6-6.5-2.6
		c-3.8,0-6.3,2.1-6.3,4.5c0,4.7,8,3.9,8,5.7c0,0.6-0.4,1-1.6,1c-1.5,0-3.4-0.8-4.9-2l-2.3,2.7c1.9,1.5,4.2,2.5,7.1,2.5
		C60.7,76.1,63.4,74.1,63.4,71.5"/>
	<path class="st0" d="M6.3,59.4l-1.6-0.2l-0.2,1.5l1.6,0.2L6.3,59.4z M5.5,75.1c1.6-0.2,3.1,0.6,3.4,2.6S8,81,6.5,81.2l-1.1,0.2
		c-1.6,0.2-3.1-0.6-3.4-2.6c-0.3-2,0.9-3.3,2.4-3.5L5.5,75.1z M5.3,73.4l-1.1,0.2c-2.3,0.3-4,2.4-3.6,5.4c0.4,2.9,2.8,4.4,5,4.1
		l1.1-0.2c2.2-0.3,4-2.4,3.6-5.4C9.9,74.6,7.6,73.1,5.3,73.4 M3.8,86.8l-1.3,0.4l2.8,8.4l1.3-0.4l-1.1-3.4l7.4-2.5l-0.5-1.6L5,90.2
		L3.8,86.8z M12.8,98.2l1.7,3.1l-4.2,0.3L12.8,98.2z M14.3,93.5l-6,8.3l0.7,1.3l10.2-0.6l-0.8-1.5l-2.5,0.2L13.7,97l1.5-2L14.3,93.5
		z M20.7,104.8l-6.9,6.1l1.5,1.7l6.7-1.8l1-0.3l-0.4,0.9l-2.6,6.4l1.5,1.7l6.9-6.1l-1.1-1.2l-5.4,4.8l0.4-1l2.5-6.5l-0.7-0.7
		l-6.8,1.7l-1,0.3l5.4-4.8L20.7,104.8z M31.1,120.2l2.9,2l-3.6,2.1L31.1,120.2z M30.4,115.3l-1.8,10l1.2,0.9l8.9-5l-1.4-1l-2.2,1.3
		l-3.8-2.7l0.5-2.5L30.4,115.3z M35.8,128.7l-0.6,1.3l8,3.8l0.6-1.3l-3.2-1.6l3.4-7l-1.5-0.7l-3.4,7L35.8,128.7z M48.7,129.8
		l-1.6,5.5l1.6,0.5l1.6-5.5c0.4-1.5,1.4-2.1,3.3-1.5c1.8,0.5,2.5,1.6,2,3.1l-1.6,5.5l1.6,0.5l1.6-5.5c0.6-2.1-0.3-4.1-3.1-4.9
		C51.1,126.5,49.3,127.8,48.7,129.8 M60.8,129.4l-0.1,1.4l6.2,0.6l-0.7,7.8l1.7,0.2l0.8-9.2L60.8,129.4z M71.9,130.2l0.5,4.8
		l4.2-0.4l-0.1-1.3l-2.5,0.3l0-0.2c-0.1-1.1,0.9-2.3,2.4-2.4c2-0.2,3.4,1,3.5,2.7l0.1,1c0.2,1.6-0.8,3.1-3,3.3
		c-1.4,0.1-2.5-0.5-3.2-1.2l-1.1,1c0.9,1.1,2.4,1.9,4.5,1.6c3-0.3,4.8-2.6,4.5-5l-0.1-0.9c-0.2-2.4-2.2-4.2-5.2-3.9
		c-1.4,0.1-2.5,0.8-3.1,1.8l-0.4-1.1L71.9,130.2z M93.4,129.7l0.6,1.5l1.4-0.6l-0.6-1.5L93.4,129.7z M104.8,122.9
		c1.9,2.7,6.9-2.2,8-0.6c0.5,0.6-0.1,1.7-1.3,2.6c-1,0.7-2.3,1-3.3,0.9l-0.2,1.4c1.3,0.2,2.9-0.2,4.3-1.2c2.1-1.5,2.7-3.5,1.7-4.9
		c-2-2.7-6.8,2.3-8,0.6c-0.4-0.6-0.2-1.5,1.1-2.5c1.1-0.8,2.4-1.2,4-1.3l-0.1-1.5c-1.6,0.1-3.1,0.5-4.5,1.5
		C104.5,119.5,103.8,121.5,104.8,122.9 M116.5,115.4c-1.2-1.1-1.4-2.8-0.1-4.3c1.4-1.5,3.1-1.3,4.3-0.3l0.8,0.8
		c1.2,1.1,1.4,2.8,0.1,4.3c-1.4,1.5-3.1,1.4-4.3,0.3L116.5,115.4z M115.3,116.6l0.8,0.8c1.7,1.6,4.4,1.6,6.5-0.6
		c2-2.2,1.7-4.9,0-6.5l-0.8-0.8c-1.7-1.5-4.4-1.6-6.4,0.6C113.4,112.4,113.7,115.1,115.3,116.6 M127,109.1l1.2,0.7l4.6-7.5l-1.2-0.7
		l-1.9,3.1l-6.7-4l-0.9,1.4l6.7,4L127,109.1z M125.9,95.3l8.4,3.8l0.7-1.5l-8.4-3.8L125.9,95.3z M135.1,94l1.3,0.4l2.2-7l-8.8-2.8
		l-0.5,1.6l3.6,1.1l-1.3,4.1l1.3,0.4l1.3-4.1l2.5,0.8L135.1,94z M130.6,82.1l1.4,0.2l0.9-6.2l7.7,1.1l0.2-1.6l-9.1-1.3L130.6,82.1z
		 M135.5,70.9l5.7-0.2l0-1.7l-5.7,0.2c-1.5,0-2.4-0.7-2.5-2.6c-0.1-1.9,0.8-2.8,2.3-2.9l5.7-0.2l0-1.7l-5.7,0.2
		c-2.2,0.1-3.8,1.5-3.7,4.5C131.6,69.6,133.3,71,135.5,70.9 M133.8,58.8c3.2-0.7,0.7-7.2,2.6-7.6c0.8-0.2,1.5,0.7,1.9,2.2
		c0.3,1.2,0,2.5-0.5,3.4l1.3,0.8c0.7-1.1,1-2.7,0.6-4.4c-0.6-2.6-2.2-3.9-3.8-3.5c-3.3,0.7-0.5,7.1-2.6,7.6c-0.7,0.2-1.5-0.4-1.9-2
		c-0.3-1.3-0.2-2.6,0.4-4.1l-1.4-0.5c-0.5,1.5-0.7,3.1-0.4,4.8C130.6,57.7,132.1,59.1,133.8,58.8 M128.2,38.7l1.4-0.8l-0.7-1.3
		l-1.4,0.8L128.2,38.7z M118.7,25.5l-2.4-2.6l4-1.3L118.7,25.5z M118.4,30.4l3.7-9.5l-1-1.1l-9.7,3.1l1.2,1.3l2.4-0.8l3.2,3.4
		l-1,2.3L118.4,30.4z M111.2,19.3l3.7-5.2l-1.4-1l-3.7,5.2c-0.6,0.9-1.5,1.1-2.6,0.3c-0.9-0.6-1.2-1.6-1.3-2.5l-1.4,0.2
		c0,1.3,0.6,2.6,2,3.6C108.4,21.1,110.2,20.7,111.2,19.3 M102.3,11.8c-0.7,1.4-2.3,2.2-4.1,1.3c-1.8-0.9-2.2-2.6-1.5-4l0.5-1
		c0.7-1.4,2.2-2.2,4.1-1.3c1.8,0.9,2.2,2.6,1.5,4L102.3,11.8z M103.8,12.6l0.5-1c1-2.1,0.3-4.7-2.4-6c-2.7-1.3-5.2-0.2-6.2,1.8
		l-0.5,1c-1,2-0.3,4.7,2.4,6C100.3,15.7,102.8,14.6,103.8,12.6 M91.7,8.6c0.8-3.2-6.1-3.9-5.6-5.8c0.2-0.8,1.3-1,2.8-0.6
		c1.2,0.3,2.2,1.1,2.8,2l1.3-0.8c-0.6-1.1-2-2.1-3.7-2.6c-2.5-0.7-4.5,0.2-4.9,1.7c-0.9,3.2,6.1,3.8,5.6,5.8C89.9,9,89,9.5,87.4,9
		C86.1,8.7,85,8,83.9,6.8l-1.1,1c1.1,1.2,2.4,2.1,4.1,2.5C89.3,11,91.3,10.3,91.7,8.6 M71.6,4l0-1.6l-1.5,0L70,4L71.6,4z M58.4,8.9
		L55.9,0l-1.6,0.4l1.8,6.4l-0.9-0.6L48.9,2l-1.5,0.4l2.5,8.9l1.6-0.4l-1.8-6.4L50.6,5l6.5,4.2L58.4,8.9z M47,12.4l-0.6-1.3l-5.2,2.7
		l-1.2-2.4l4-2l-0.6-1.2l-4,2l-1.1-2.1l5.2-2.7l-0.6-1.3l-6.7,3.4l4.2,8.2L47,12.4z M33.4,10.8l-0.8-1.1l-7.2,5.2l0.8,1.1l2.9-2.1
		l4.6,6.3l1.3-1l-4.6-6.3L33.4,10.8z M26,21.9L21.8,18l-1.1,1.2l4.2,3.9c1.1,1,1.2,2.2-0.1,3.6c-1.3,1.4-2.5,1.5-3.7,0.4L17,23.3
		l-1.1,1.2l4.2,3.9c1.6,1.5,3.8,1.5,5.8-0.6C27.9,25.5,27.6,23.3,26,21.9 M21,32.8l-1.2-0.7l-3.3,5.3l-6.7-4L9,34.8l7.9,4.8L21,32.8
		z M15.4,42.3l-4.5-1.8l-1.6,3.9l1.2,0.5l0.9-2.3l0.2,0.1c1.1,0.4,1.6,1.8,1,3.3c-0.8,1.9-2.5,2.5-4,1.9l-0.9-0.4
		c-1.5-0.6-2.4-2.2-1.6-4.2c0.5-1.3,1.6-2,2.6-2.3l-0.4-1.4c-1.4,0.3-2.8,1.3-3.5,3.2c-1.1,2.8,0.1,5.4,2.4,6.3l0.8,0.3
		c2.2,0.9,4.8,0,5.9-2.8c0.5-1.3,0.4-2.6-0.2-3.6l1.2,0.2L15.4,42.3z"/>
</g>
</svg>
