<svg id="Capa_1" data-name="Capa 1" xmlns="http://www.w3.org/2000/svg" xmlns:xlink="http://www.w3.org/1999/xlink" viewBox="0 0 157 76.12"><defs><style>.cls-1{fill:none;}.cls-2{fill:#d90e1f;}.cls-3{clip-path:url(#clip-path);}.cls-4{fill:#16372b;}</style><clipPath id="clip-path" transform="translate(0 0)"><rect class="cls-1" width="157" height="76.12"/></clipPath></defs><polygon class="cls-2" points="96.37 13.36 96.12 5.58 106.6 11.2 96.37 13.36"/><g class="cls-3"><path class="cls-2" d="M51.6,42.76c.45.13.91.1.91.7,0,.92-1.24.43-1.24,1.56s2.24,1.13,3,1.13c1,0,4.12.14,4.12-1.38,0-1.31-1.07-.33-1.43-1.9s-1.46-6.63-2-8.27S53.65,32,51.85,32c-1.21,0-2,.24-2.26,1.58-.69,3.09-3.16,6.56-4.92,9.49-.84,1.39-1.78.51-1.78,1.76s1.49,1.28,2.44,1.28c3.34,0,3.63-.62,3.63-1.3,0-1.06-1.11-.61-1.11-1.23s.16-.78,1.13-.86ZM50,40.51c-.3,0-.59-.11-.59-.33s1.06-2.91,1.54-2.91,1,1.93,1,2.74c0,.31-.08.46-.64.5Z" transform="translate(0 0)"/><path class="cls-2" d="M64.79,37.16c0-.88-.53-1.16-1.33-1.16-1.15,0-4.37.59-4.37,2.13,0,.55.27.51.7.55s.51.17.51.52c0,.59-.58,2.84-.58,4.12,0,2,1.87,2.93,3.65,2.93,4.39,0,6.42-4.18,6.42-8.06,0-1.19-.37-2.16-1.7-2.16-.72,0-1.7.23-1.7,1.11s1,1.66,1,3-.72,3.69-2.36,3.69c-1.4,0-.93-2-.82-2.81a28.72,28.72,0,0,0,.53-3.82" transform="translate(0 0)"/><path class="cls-2" d="M71.25,43.77a6.73,6.73,0,0,0-.12,1.09c0,.82.84,1.27,1.58,1.27,1.12,0,4.2-.89,4.2-2.38,0-.47-.27-.49-.64-.49s-.57,0-.53-.37c.1-.76.45-3,.49-3.22a23.68,23.68,0,0,0,.33-2.77.79.79,0,0,0-.88-.9,10.32,10.32,0,0,0-3.4.82c-.64.28-1.54.65-1.54,1.49s.47.68.76.68.43.14.43.39a10.16,10.16,0,0,1-.17,1.07Z" transform="translate(0 0)"/><path class="cls-4" d="M73.41,35.43c1,.11,3.46-1.29,3.48-3.33a1.43,1.43,0,0,0-1.44-1.6c-1.11,0-3.58,1.15-3.58,3.39a1.49,1.49,0,0,0,1.54,1.54" transform="translate(0 0)"/><path class="cls-4" d="M80.68,36.19c1.42.16,4.74-1.76,4.77-4.56a2,2,0,0,0-2-2.19c-1.52,0-4.91,1.57-4.91,4.64a2,2,0,0,0,2.11,2.11" transform="translate(0 0)"/><path class="cls-4" d="M15.75,76.12c8.7,0,19-4.46,19-14.54C34.76,54,29.15,51.15,23.25,48c-1.66-.86-3.55-2-3.55-4.13a2.39,2.39,0,0,1,2.69-2.4c3.84,0,5,5.95,9.22,5.95a4.67,4.67,0,0,0,4.47-4.86c0-3-2.81-8.19-6.19-8.19-1.6,0-2.63,1-3.37,1s-3-1-5.79-1C12.83,34.32,5.15,39,5.15,47.6c0,10.94,13.63,13.06,13.63,18.1C18.78,67.88,16.89,69,15,69c-3.1,0-4.81-2.86-5.84-5.44-.86-2.23-1.72-4.92-4.64-4.92C1.38,58.6,0,61.12,0,63.92c0,8.65,8.19,12.2,15.75,12.2" transform="translate(0 0)"/><path class="cls-4" d="M55.68,49.07c-9.25,0-19.11,6.87-19.57,17.44C35.86,73.33,41.24,76,47.45,76a20.82,20.82,0,0,0,8.79-2c2.09-1,5.49-2.65,5.49-5.34a2.24,2.24,0,0,0-2-2.14c-1.63,0-4.42,2.9-8.08,2.9-1.27,0-3.1-.81-3.1-2.29,0-1.06,1.27-1.06,2-1.06,5.74,0,12.61-4.78,12.61-10.94,0-4.47-3.41-6-7.43-6m-5.84,5c.81,0,1.11.91,1.17,1.57.15,2.44-2.34,6.21-3.77,6.21-.71,0-.91-.82-.91-1.43,0-1.62,1.42-6.35,3.51-6.35" transform="translate(0 0)"/><path class="cls-4" d="M79.84,60.36c0-.46.35-2.59,1.06-2.59.41,0,.87.91,1,1.22.87,1.47,1.58,2.18,3.41,2.18,3.45,0,5-3,5-6.1s-2.24-6-5.54-6c-4.73,0-4.58,4.88-6,4.88-1.63,0-.26-4.83-3.36-4.83a10.47,10.47,0,0,0-4.67,1.33c-1.94,1-6,1.78-6,4.52,0,1.83.81,2.24,2.39,2.24,1.37,0,1.52.4,1.47,1.78-.1,4.73-2.13,11.08-2.13,14.13,0,2.29,2,2.8,3.91,2.7,7-.31,9.1-2.24,8.79-7.17Z" transform="translate(0 0)"/><path class="cls-4" d="M107,60.36c0-.46.35-2.59,1.06-2.59.41,0,.87.91,1,1.22.86,1.47,1.58,2.18,3.41,2.18,3.45,0,5-3,5-6.1s-2.24-6-5.54-6c-4.73,0-4.58,4.88-6,4.88-1.63,0-.26-4.83-3.36-4.83a10.51,10.51,0,0,0-4.68,1.33c-1.93,1-6.05,1.78-6.05,4.52,0,1.83.82,2.24,2.39,2.24,1.38,0,1.53.4,1.48,1.78-.1,4.73-2.14,11.08-2.14,14.13,0,2.29,2,2.8,3.92,2.7,7-.31,9.1-2.24,8.79-7.17Z" transform="translate(0 0)"/><path class="cls-4" d="M129.92,68c-1,.1-1.17-1.22-1.17-2-.05-3.26,3.36-10.83,6.05-11,.81-.05,1,1,1,1.63.1,2.54-3.21,11.19-5.9,11.39m13-18.71a9.51,9.51,0,0,0-4.32,1.32,5.3,5.3,0,0,1-1.93.81c-1.48,0-2.9-2.44-6.46-2.08-7.83.71-13.53,9.25-13.93,18.41-.2,4.11,1.73,8.23,6.4,8.23,5.24,0,7.73-4.57,9-4.57,1.63,0-.56,4.32,4,4.32,2.8,0,10.22-3,10.22-6.26,0-.81-.51-1.17-1.27-1.27-.56,0-.92,0-1.12-.61a9.85,9.85,0,0,1-.05-3.25c.41-5.49,1.32-10.07,1.52-13.12.11-1.42-.66-1.93-2.08-1.93" transform="translate(0 0)"/><path class="cls-2" d="M107.74,30.65c1.42.15,4.75-1.77,4.77-4.57a2,2,0,0,0-2-2.19c-1.52,0-4.91,1.58-4.91,4.65a2,2,0,0,0,2.11,2.11" transform="translate(0 0)"/><path class="cls-2" d="M68.11,32.68c.31-6,5.58-10.83,12.13-11h.42a13.67,13.67,0,0,1,2.41.21c5.78,1,10.14,5.73,10.14,11.36,0,6-5,11-11.4,11.53a10.74,10.74,0,0,0-1.14-21q1.15-1,2.4-1.89a13.67,13.67,0,0,0-2.41-.21h-.42c-.67.64-1.31,1.3-1.92,2a10.87,10.87,0,0,0-10.21,9.06" transform="translate(0 0)"/><path class="cls-2" d="M78.32,23.62c.61-.67,1.25-1.33,1.92-2h.42a13.67,13.67,0,0,1,2.41.21q-1.25.91-2.4,1.89a11.69,11.69,0,0,0-1.79-.14Z" transform="translate(0 0)"/><path class="cls-2" d="M108.31,9.44,115.8,0l2.8,9.45C140.23,11.54,157,26.54,157,44.73a30.17,30.17,0,0,1-4.5,15.73,29.15,29.15,0,0,0,2.88-12.59c0-17.69-16.22-32.32-37.29-34.68l-2.45-9-6.71,8.73a48.76,48.76,0,0,0-25.86,8.92,13.67,13.67,0,0,0-2.41-.21h-.42C87.2,15,97.11,10.5,108.31,9.44" transform="translate(0 0)"/></g></svg>